<mxfile host="65bd71144e">
    <diagram id="3cCiVY2c3dFF-VOoDrOB" name="第 1 页">
        <mxGraphModel dx="925" dy="592" grid="1" gridSize="10" guides="1" tooltips="1" connect="1" arrows="1" fold="1" page="1" pageScale="1" pageWidth="1654" pageHeight="2336" math="0" shadow="0">
            <root>
                <mxCell id="0"/>
                <mxCell id="1" parent="0"/>
                <mxCell id="27" style="edgeStyle=none;html=1;exitX=1;exitY=0.5;exitDx=0;exitDy=0;" edge="1" parent="1" source="19">
                    <mxGeometry relative="1" as="geometry">
                        <mxPoint x="350" y="740" as="targetPoint"/>
                    </mxGeometry>
                </mxCell>
                <mxCell id="19" value="&lt;font style=&quot;font-size: 18px;&quot;&gt;虚函数表指针vptr&lt;/font&gt;" style="rounded=0;whiteSpace=wrap;html=1;" vertex="1" parent="1">
                    <mxGeometry x="160" y="830" width="150" height="60" as="geometry"/>
                </mxCell>
                <mxCell id="20" value="&lt;font style=&quot;font-size: 18px;&quot;&gt;int m_a&lt;/font&gt;" style="rounded=0;whiteSpace=wrap;html=1;" vertex="1" parent="1">
                    <mxGeometry x="160" y="890" width="150" height="60" as="geometry"/>
                </mxCell>
                <mxCell id="21" value="&lt;font style=&quot;font-size: 18px;&quot;&gt;int m_b&lt;/font&gt;" style="rounded=0;whiteSpace=wrap;html=1;" vertex="1" parent="1">
                    <mxGeometry x="160" y="950" width="150" height="60" as="geometry"/>
                </mxCell>
                <mxCell id="22" value="类A对象a" style="text;html=1;align=center;verticalAlign=middle;resizable=0;points=[];autosize=1;strokeColor=none;fillColor=none;" vertex="1" parent="1">
                    <mxGeometry x="200" y="790" width="70" height="30" as="geometry"/>
                </mxCell>
                <mxCell id="25" value="" style="shape=image;verticalLabelPosition=bottom;labelBackgroundColor=default;verticalAlign=top;aspect=fixed;imageAspect=0;image=data:image/png,iVBORw0KGgoAAAANSUhEUgAAAQQAAADSCAYAAACsGL6MAAAgAElEQVR4Aey893tcV7X/f9Qst9iOE5KQAiEh9UISIKQRIATChQQChFBuPpT7oYcbwLFVZkbVJZZ7ly1bliWrd42k0YzqSKPpfc6ZLmmkkVziJCRw/4LXl31kx6k2cIHv/TxPfljP0cw5c84+e6/1Xmu919qSrF6ZD+SDOfhABz7QAaEDks2n8LdLGJtPyN/z2w9+88G8faAD/1t14O8DBG8Emy+CzatclHeCg3pOxuZ9i7zzmn/W57eO63/69z9rjP8P3tfqU3invFuxZWy+d8oHAPDuefrfOSeS3R/m0hLB7n+7OH2Ln52+MELs5z9fvG7xe6dP5oLYfcplnnO5cfwN59VxRRDjvCgXxvTXHx3i3S47P//qa96+Fhfn/B/x/aXfxeYP80559/yIdZbfIZe+77vv8cH1/3/Nyd8NCG6vMLYLxhXB8TZQuPD9B4Dwj1/Yf4Thv989Lm2I7wQD8fnd7/cBILx7Tt5rnv53fvd3AYJQBDUy8IcRXlR44Q8A4V+1wO9nzG///kJk9O7o7e3XXYgwxPpdBPj3fpcPAOG95+X/ZQB459glRyDCpcTpj+DyR1Vx+qM4AkIi2AMKjoCCPRBGXPPWc+K8S/2dgsu/KA4BHpd51j/s/FvGfGHsi+O5MK6/7ije6x82pvd7d3Wslx/PxbFcWINLHy+8t+PNNbv09Yvr/PZxvPPd7eq6i7W/KO+8xhEQ67yoGxeP/4J5fL/5/V/3/Vvn5l9oE3/lPPxNgHBBybw+oTgKEY+C16vg9sXx+CJ4/EHc/oAKHm5/CJ83zlgopZ4PeKJ4PRdzesUlPNU/aULew8jGZAWz7GEiJCSAJSgW5u2KGnFHcAuyL7AIYj6vOL79mnf+5q/9LO7j9iuEvCEUb4CAJ47PG8OtzmX4PHC+3SDfG8TeatgRdd59vjA+n/I2Ec966+8vAsri+zi9U9h9U5gDMUxKBHNIPHsR+BePEYaUCNaggltEhP4LiizjCIRUoxfPEOvsCASwB4JYAxEmAjFGQ1GswShjspDFe3t8Cn7Pop44A8HzoCGAJarK5ebxre/iEM8K+tU1FGOwBsU43z4vl7vfv+a8QsijEHYrOP0yZjmkzqc9GFIdqnCmF8D1UuN5J1i/89q3nn/nOr/z2st9lpzBCO8lLuHlVYniCsRw+WO4z4tQmMlgBNkbxBn04wrIuIURBmI4AjPYAvOMh+J4AlFsQaGAUzh90wgldAdm8PinGRf3DETf89nvNZ6/6bs3x37xHcbkOM7z7yHexRGI4Qy+/fkuMReBCF5/BL8vggp8gfeen79pPMHFcTgCcUblKUbkFJOBGRyBJC5/XJ2Hi/N9YczvfRTv4AxekCgeAbw+Pz6f703x+/14AmJdgm8TZ1Cs16I4/DFcPgEACkJBhWdX11ldl/Nrc34ehRJNhiLYg2E8Yq0DEXy+JE7/LOZQAldAYUIOYgvKKgi5/cLwk9iCSTy+aRUAQ74gfp+CVzgNdWxhde0dQj/U97nMPKvjE+uzuHb2YAx7MI7XH0fM60Qogi0YRtzvb12bf+b1Yq6EPl0Qj3CCIRmHOtbF8V52zEIH36HTF8b8Tr0R11049/cc/yZA8PhjCDHL0wxFhGGLxQzjDsjqgHsdEXZb4uyamOPIZBSrel5EDELxZxl1JZgMz2MJprAGpxGKc7lBixe+3DXvOv+OyRP3OOBIUDkcod46Q58rzaR/Fvs7lMcuR+iyKbTZogwH57AHUyoovuv+7/jdIrC8HVwu/EYstvACIv82u5NoRyMUjabYM+BiwJvAqczgCSZxh2IIQLooUVzBd8tFMDgPCh4Fl0fG7ZPx+mR8Phm/P4wnGH7Lvd49h/bgNC6fWJcINjXMFxHMRdAXf4v3mgwlsIRSmOU0lqAAgTD9kwEOj4i1TmH0zeD0JxlW4lhC4n5J3P4ELv8Mo6E0bZ5ZBtwRNXpwKxHc4SAuJYA9KKsA4xCePRhTDXkRHN491gtz6VTT1TiToRSdjhjHnAkaHFN0uJKYZWE0YVUP37z+Xet0iXv/k64VuufzR/H7omo0NxGMYhFzHozjlOOI9xf6cdkxC51WoyABhEmswSkmg1PYg1PnnVvsH/LukjMU5b3EHYyyKDHcwTjuQBynL8aIM06lTSGvzUiz2cdkdBZnULzYFPv6rHyk+DAfK2/lB5X9jAbiOGQfrkCSQVeCkvpe1jX3s8kwTo9LTEISl/AO7zMG8b0Yw6XOXzwXwRk6L2+O/cI7RPnqUSP3FjfwqeJ6nj88xKBzFmsort7bcf75I3KM5xuG+WLFSb5b2c3Ofudf+Xxxn8V7XRzP28dtCUTon0xwTVkj1xR186juAIcGndgi8ziCM9hC06pBjYeSTAiRp5kMxbFfiGLenCMxXxeeF6d5QqZy2MfBYR+VIwFVDo8EqRwNcnBU5sDYouwfk9n3Ftk/qnBkJEivLYJFmWPSG8UTEFHdRXGGYgyFpql2pCjuDbHX4GY0EGFLfR+f0FXzkZJGmobDjLvnWHeyl+I2M3VjClZZOIs5KgeDPLKjnq9sa2R7yxCj/jDuSBhnWMEeCmMPCYcidOfSc6fOaTCOPZTAEYph8id5oaaXe7fUcW/ZMX5+tIdxOYbfL0D57fP+fuvx93//Fj17c03e/5lCf32BGL5AnBGnzP5RO3uH3Bwc8dI24VsE2VACMdeXH5MAzjj93hl63LP0uOfodU9jEaDwV9/j/ccqnv++gPCmd1JDyDhOf4xxZ5SKk6N8JH8n1+dt58lttTQ7p1UFEB5ne58NqbgaSdPK1/YPYQqksMl+JoMzlHZPcJt2F1cX7ebDxbsobDMwIU/hCojJEIO8MNFvH7ArILxdUgUdp6oQCawibA7F8akpx4WJvPD7RSR1BwQYRHAHwow5FT512MzKkh6WFjTwf+vdTMinsQWmVe9kC8VwhxK0+6e5c28Puds6uHZnF782BPGp3juBOxRfFFXhLjzzwvGCgV4I5cX350UNh+OY5SS9E9NkbepC0gxwm+44Pz1mIL92kLL6UYrqR9hwcpA/1A2yrtbIuhNGdnSMYHJHcMqJRfQX9xSeTCi+ShYm+fnJUW7UHGfNhmpWr69h9frjrN5QwxV5x1mZV8uKvDpVluefZFHqWJFfx6r8g1y3vpLv7uigejjCuH8WVzD+NhGeq8c7xcO7u1mxvp7PVrRQ6wqz7rie3A01SEWdHO+VqR2b49aiWtauP8IXtzfS5xPGOU1eix2ptIaMwiZeOGJkLDCD8PKCN5gUIX8gji0QxyIch/pu4phg0K3Q4QzQ6YjQ6YzS6RTHBK3OOK1OhSP2CF871E1uaT2ZRVV8paqfRmeEAWtUjRwWrxe/WZRuZ5RuZxiLqKSoAPve0dxlvbQaRYhUZzHdEdeLiE7o2WLaI7gTEfVe1Gc14hMRQCjBSaONu8sOcU1BJddpKvnJgQZ6ncLjC4MW737xd+8GhxgOOc5kIMJzu9v4+uZGvr6lkW9vqaPDEsTijy46j78CpN5974s2976A8OaPzodpztA0454p6owySzZVk5N/lOwNtfxqu4EBjweb38OONjOSppuMdb08sH2SvsAplTyqNEW4fUsPGVo9K3VGvnAsQJcliSGaZFy54B0uGPTFwYkxeBQvbvMc/UMBDGMRusYjNIx4GbTIpF1i8qfPe8wLvxcgEFW9hT/owx9w02hVuGGzmZyCIW4u0rN1WBhYmphzHmdghsnQFBHfHAfNZ1lZ1IFU1MzHNnexx/kKvsBpAsEUgWCSQHAa2Z9gwh/DKhRYFh4rif28iDlyBlPYg7PYQ3OLoqYeafoDCxgNEaTiNnI2CFDoQdLokQr0SBvOS0EPkrYbSduhyoObmzhhTWIJzeEUEZpIP9SSr4xTdIu6Uvyw1swaTQO569vIXd+tilSoV9dB0vSq4CMVmpDyDEj5BpZojCzXmcgoP4pU3IpUWMePayYwBubViE1EbRfE7A8x6InwZIOTpdp2cjUneabDwR8qh5AKm5CKTGzvkvn3EzGy8wbIzWvhR90uBvw+rBErP6i0I2nakIoq2dZgwepN4/BMqeniYDiBx5/A7ktglGNYhBH504wETvHzmh5WFe9mVX4jKwo7WKJpZnl+Lbn5J8jMbyB7QyPL151gzYuVSAVHkDQ1LNPWcYW2kVXaLlYWtLFsQyMrC5pZpe3guvJebt/aTP2g//y7/T2AcAEILh5FFUWQuV57gBFXFJszQp93Xo22RPop+DNR1hUcjEeZpqnXQ05pH5K2B6lEzw+OtdPhESmZ0JcUdsFzvcsxCsdy3uHISUb8SW7ZYmBJYTOSpp7rNbUcHxWkbnJRR/6ngOCSY1xKnEoURySKNxohHBYsfJQNTQFVsdf+/gQfKjxG5YiNEYeLrS0mNTqQXtRz074QhtA8I54gTx0dZsUL9eRq+rnrkJOGsTSWcBSbPIsvOEUgGFFzXmdIEC5Com+Ky5/gmZYwGQUNSLp2sjfquaKsgwerrYwGXsUVSuOSE7jk8HkRIJLCEZil2+5D7wyxfVQY4jCSbpzHdzk4YX4Vs+McA/bTDHpmcYbTKhH6/eYEOfmdSLp+7t5lZaflNfqtZ+i3pem3zahHw+Qc9ZNxBjzimTO4QtO4QlOqOOUZFiXylvGEcYYUxuQQQ0NBpI19SIX9SEW9SGWdSJtbkV5qQtrShrSlG2lTP1LZAFL5IPduO0mV048lrOAKhtSc0av2fUSx+eOM+mYp7PPyxNEhvnh0jC+fcPBYrYMvVNu4/+ioKo9WTvD4ETtfPmjngU3DXFHQR0bpKNLGdqSyXn5SO06HI43ZK8Y+9TYRipzyhjkyHuGO7YOsLm3jiZohfrpnDKmwA6m4loL6IHft7iczv4avHhumMXAaV/wM+rCfT+4dITO/h5Vb6jhi8OCIpFXFdSuz6nx5fQnCngQhf5Kwdxp7cI4O/yxPVbUjvbBlEXQKu5FU6Vx8pgBMMX/5RnI29JO7oYcl+XpUENT2ImnbFkFI04F0XnIKOrmppIFtHZNMhGdVT/umw/urDEg4G7GOi2sp1lOIRQ5j9EbYrbfyyP52HtnfxQt1ZhXkbEocq3CmavQQxhueobnPS05ZP5K2D6mkn+eOddLhnWZCTmOT57ApCRxKRBWnLByOkPh5/RZ80xSjgSlu2TLAksIWJM1Jri+so3pM8DEziyn4Zez5UrYuzkmXu8AXTGB0KJycCHBiIkyLbYYmw1nu2D5GRkkbX93ZT3l/kv3DSZ5vsi0uWn4TH9s+yd6hCEdGp/h6ncz1ZSZuKu3jubYgR51JDlrC1NlStE0mGBIoqSSxybE3geACKBgdC6zePYpUUMeSogayi9vVhV67e4g251nC7ulFUuX8IrnkKJOBaQ50TPKlXS18qsLAx7eauDp/hDUFA9xUNsQnKsx8dtson982zDNHRrD7XuakdZrrXupCKmgnSzfAam0ft242cX3FINdv03P99m71eHNFP/dUtLKxx4E9kMYfSOEITmPxJVSQ0HvjDPiSDAUWZTiwiOqDToW2IQfSRoMKOPeX1FLa7qB5bJq+sRl6h6L0jSboHk/SbU7SMzFFj3WKcXcSvwCdYJzBsCB1EzgCCezBBNZgjFFlhpHwHGZllpFgimHfHFZ3Gr9zmoBnHofnHA3OMzzfEuZz28e4SturGtHq7T2U11no94UJ+6cJB2dwy9Nvi3pGfdO0TE5Rakry6R2jfO2QDV1rkP+zcxipUEQzHWgbwjzfIfPsCTfrm/0cGExw3LJAVyDJqs19rMg3cFdxK3s7PJwY9XN83M+xcYWqkTAHx6KcHIqokYPsTTEZnmUwlGJLzwTfqurha5V9PHlklKeqhnni6DBfOjrIY1VGPlc1xg2be5HyWsn5QwcfKu3nyUor36qy8O2jYzx9xMQ3Dxv45uE+vlE5wHf2D/D9A720mGUmw9M4hKH9VUBwIVp9NyA4REUlEMfonOP/HhpB0nUj6Xp5ep8Rl3caaziBWU2LRJUu+nZA0BmRig386Gg3bd5ZxuWFvxkQcgqbySys49q8GhUQbKEZHIKT+58CgluJcylp9p/h2ZM2rnmpnSVbW7l6az8f2trFyrI+VpYOcHPZCLds6ueOcj03iFBIM0J2fj9Li0a5snSU1cXDrC4dY41umJtKTNyzycgny4zcWGThjqJuPq1pockYxhY6hUNeXCyxYBekom8GqbiX7PU9XFUywrUaI1cXdCMVtKI1BrFHLuRsi6jtCkWZCE5T3jRMbn4l0h9EWCzCViOSrkP9e1lhD1cWGLhyfTf37DAy7HqZda0ucouaWZLXzMqibrIL21WFkwrEbxrV0Fo95rexSlPDhlYbjsApgoE04/I0Bl+c37dM8uRBI184PMjnKofelIcPmXhszxCPbe8gUzvAyvWdLCs1cNs+K3fvH+feKiufrLRx32Ernz5k5tP7R/lspZmHjo7xzIkRClsnGAwu4ArNYAmlMfvnGfUKr55iIpjAFo7ijMpYIyHGlTBWJcCYEqBPmWb/QJjPH/GTWzaO9GInOXmt3LW1m/1DERTPaeLeWQaVl+mWz9ATWqAzsMCoPKsSVeNONzfX2JA0JpbnG7iyuJPlxbXkamrJ0vaSoRNpoBGprAupeHFNVmpb+VVvnJOmOKu1epbkC6/dzo2aVq59qZG1FQ1cXdHClS/Vc1VFA5/e3cbmESuyP40nMIPinSHqX8ATeJlx7wKT7jNYXGcxuU/T4l+gzTPNYfccX6kykqE7hrShh3urbNS5z9JvO43B9jJG1zwm7wwmXwKTZ4EO7wLt3rPYgnNYlWmcivC67xEZC47qvGe+cLx4nYj6hCi4lTAeJYpHjmCYCPHr3b3kagaQ8vU8e2AYvz+NLTLNcCjBpCDkgzH8kVk1QsgWEYIABJ2RHx3R0+FPY1HOYFPS2JQkDiWsikuMU57CLapQSko9iu/GgtPcutXIEk0LGQVNfGh9HdXmiBptO9TrL23Pl7J1cU663AW1yst87mgv0ot7kAqPsUxTzarSeqStHUilvawuHWFJ0QjZmr5FI9J0skQ1ol4yCgbIKuhHerGVjPx2lui6WFLSiVTcjFTWilTeyFUlVRwYV7Ao8zjkFOKlBJssJkMs4NN1CjmlPWTk1fBYRTOf3j2AJABhXTePn5jEL5/DpYjFXVwssYBWZZYtbZNIeU1I+W3cvEXP05saeKK0ji+V1vNQeStXvliNVNLKx3c5abK9wccqHNxYPMLyvAbuKznOlzee4KsbG/jGlnb+b2kn39d1c4PIh3UN5GhryO9xYw+m8Qdn1Rr8eCDFI3sHWKvrYU1hNyvzW8gR4W1RPxkiqtnYilRmQCoeZMWGAXK1ejJ0eiRtJ1JRtzqXksgvN+pZVqRnha6PNUU9rFpXzWObmjA75/GH5rCE5/hSwwhLyo1I2/rJazYyISexhBfwBeYZVBIMRaYYVRQOO+Os3nCQJSV6lmq7uaW0gYJ2I91+BUPwZUZjr+ELpOkJn+bW9VUqr7FUU0u3fRpbII3BtsAXD/azprCOjxU0c4OuheySRnJEWF40wJrCPrJKu7hKU8MNBXVcW1jNddpD/LBjkl/VeJGK9GQXtJJR0IJUWktmeQ9XFPdxlbaN5UW15BZ2k1vWTE+fHV9wlkBgCp9/GncgTaVJQcqrQypqPc+pdCMVi3C7e5EfEc6nsIuV63rIFClDmV593rLyVpaXDLOiyMpyIaVWpIo+tpsVbKEUluAslkgYV0KUvtNY5NcZjpylNXFKrabZ5TT2kJBZ3HIaV2ieSWWB4dRrhP0L+KKneENJ4J7yY42nqbGc5qvbjGQX9qmO69nKLtpjaYzy64wGT2P1pXEFZvGHz9DY6yNbpIkCPLWtPLu5gT7nAiPKH9FH36BJfoPj/ldpi73BQOgck/I8NmUBp5LGraS4AAgff2kRELLyW7hmw8l/LSCYQ2k0TYN8a1cTT+9o47ntTXxjWzPPbOvkq/vH+MS2MZZqxpEKB8gobCezoHfRYAs7yMrvI3ddD7dsMvL43hGe2t3DU7tbeGp3A9/a28k397fz3L4GWi1+7CJ/kqM4VQnjjUxhsse4Y/coS4taydTU8euaMZ6psSPldbLkD71cv2sAk/P0IqKqgBBRo51JeZatHTak/GYVEJ6oGsfgnaXXn6ZHPsvu8ST3bmlE2tjGNRUTPNuisKrQSG6RkVtLG9k1FKbTt0Crf4F23zzj3rP0eV7hW61uFRByC6vR9HpVQPAFBCAEmAjO8sheI2u1vVy1oYGHypt5ckcvT2/v59ntzTy7qZvHyg0s3TJEZnEvN+V18MhGA09uH+SpbUa+VrEoT23r5+HyXiRdJ0s1rVytq+N7x41YwqdxynOMh8/wuVoLksao5qE/PNZDZ3iBzUY/TzaaqXcL0JgnpMxwxL/AmqJ6MksHubbMyIvDU4z+BVAsyjl+3xvg0WNGdhkVGoJ/5A5dKxllJpaWdtBpF3yC8K4zHBsOs8uUorAnxteP2bh6Yx8ZxQNkFprIKjQglbbz4c1d/LjBTXlfkF3GAHsnZnhqxyDLhC5omvlUURPf39nOUzsGuLO0h1UFLaxcX8vHdg7y9cN6DCOivJvEExQNUXHVcA8Y/UgbjiFpG5EKmhajNRVgzwNokfC0vSx7UaQOPUjFXUilrUi6FqSCtvPRXesij7CxlYph0XyVJuiKMOpPc3B8hmdr7DxW6+fxWg/rBwQJGFM9rS00q47BLfgp5TS7TF6erh3ksWo7D5300zo0yS7BbbVN8mC1hauKO8nJN7C8oJcbKvr5XPUkT1QHeeKIi30iivWFCUTO0qj3kyXGWNqvzttzRyzsGZvj+yet3LbfyEd39nHL9n7u3DnALzucjMZexSW/giO8gCN8ERBurzCxRNtKjgoI9SogWOVZ7P+ICMGjJLiUuJQZxuUZjKEUQ/I8VuUsI/JrDAbfIN80z2erXCzTmMkqMJBd2EGGQErBlud3kF3Qx9L13dy+c4SftMlUjKc44Z+nMzCH0bdAjz9Nry/BqJLAEolgU8I4lTAuRSE0M09Nv4tcXStLSlpZnn+MyuEkut4EVxfpWZXfT3Z5J7sGprGLhhclpopHkDnKLBVdTqTCVqS8dr5/0oY/LK5LYo2mqbaEePilGqTNbWSXGlizqZ1snYGM9fX8uGaQ4cAcbnmOSdFA5Z9CDgrC5xzfaZpA0jWSqzmOrt+PIzRPIDSHLaxgDc3z8F4TV2oMXK9ppKDbR3vwFbr9Z+kLpDEG/8TesVdYvm0EqbiT+w9YeME4T4XjdTZazpFvXGCdfpbNA2cp1M8jbdKTXdrJzZsbKR8T6cAsgVAaS+Q1PnfCSoZmBKl0iJ/WmXmx08KtJcdYXljL5w8PcdAWV/mAGt/LXFnSRkbZILdsNnDQniYSn6NxPMU1W1pVhv7RDUeo6I9zR34TUvEAS4sEIKTwhONYw2ms/nn6ldd5oV/hnu39rM5rVzmQzAITUomBlbo2Mje08PGX+ni2wcp+xywHB+N8sqSdlQWCL2nlmZohxrxzdPrO8ZXDIppsYkl+Gz/qjqjlQrcgZ9VwOYpViavl6JZJhZ9VD/DTmlGeqxrmJ1VjPFdt5UfH7DxT4+bftplYUtjOkoI+btlk5gfHrPzn0SH+49gw/1E1wHNHDDxXNcAPjg7xXO0wVcMyE75TxL0K1kCKPaYI95S0smJDK1e82MVnKy2MBmJ4RU+IPItVRKuhWYZDCzy1r52c/MMsX1/P2qJ2eq0hnutTWFHcRKaI7gp6yCwcZKkAwMIWlq4XBHovSzTdrG8Zx+6TCcbOA0JZE9kaAaQG/m3zEPftGmZ1kYg8O98kQQVhuyq/me8dMNPtPIVNmccTnsEdnsEcmuH2ikEVEHIL2rg2r5Hq8SiTyhx2ZfqStnwpO79wTrrwx/sdnbLIa6axy9PYRL3Uv0CX4zQFjT5uL29jubaVlcVGPvrSKHftGlfZ84wCPTn5HSwTZbX1beTk1fMRXQMPbm3juRNmDltSGNwLjIVOqwyrJZxiPCoUUEQIAhDCeKdPU143usg0Fzfx0aIaDIFXOTa+wN3FXazQdJJV0MJP6t1YFZFrLeZObwJCp+M8IHTw7IlJvEpcZXEnlGmqxv08sOkoUmkjS4v7+PDmRY9ya1kbhyenmJSn8IYS+AIz+HxxFG+MSd8cT9QMvAcgpHGGo9jlUzy0Z4g1mgE+pGlhXYudrXoXzx/p5ZfVfTx3eJIndk0glfSSqWljVVE7N5W1c3NxE9fk1bL698e5en09j79kRFMf4uNberm6rIMvHeyj3j+NLZxcBAT5FR46aiGzcBEQflYzxkvmCHdXtLBqQzOZ2noeONhJhy1MrfNl1hZ1IRUZuO2lfo665vEqMb69o5WsslZWlTfxX4eGaXK9xie1HWSWDaoRQoeIEJQpxqPnqLfE+Hm9hY9tbWLFhuNcXdDBypJ+1JJmWTffODLGh3ZOkKVt5/ryJn7V7eW3xwa5TtdCrlB8XTuf2tWk5sgm5Rxf3G9A0rYgvdjBSwbBxMs4Q0lsoSl178OQkmRImWMktMCYN82w5xQG91mGva9g8L/KkOtVWvyv82yNm4zf1pCp6eNzu910ul9jyJWm130WgyeN0TvLgDdNrzdNV2Aeg3wag/waimi9lhU6vSm+sXeAazQ9XKkxceX2ERomPAQDU6pDscszKii0ume4U3OULE0DK9Y18YX9BmyeJN/tllmhaSejUHAkRjI1I2QV9JKlaeWKvGayRFqraWF9hxXRJh6MnaGp10tWWTMrNgyqvMwqjYFsbQ/Z2k6Wa9rV++UWdqi2k73BwPWFXWhanAz5UwSis+8ChKUF7Vz3FkCw/SMAwRtOcilxyimsoVOM+RbQT8TZd9LCY9v6WSJCs/J2Moq6uGFzFz/rjvJC/6yaAy/R6Llt9yhP6mdZu2uCHG0jGYI30HWwrDhCWfgAACAASURBVKiX+ytG+T/V47TaF5gIvYJbeRlHWBhWCldIRCyiW+8UT5c3LvIA5W18saKZUfkc3c6z/PuOATWUXJnXxQN7TUzIp3CH43jCU+pvrcocW1VAEMRgJ0/XTDAeTjMcWcAYO8N+W4JPba0nQ1vLzWUmSszzXFfl5MVGmQbX61SPuVT2XeSPwmNEA3HGPDN89kQfGUVNLNXUUNwfxBFaIBhK447FcShneXDvKKs1RnJf7OAXDXa+XWlgzfpKlQ3O0raQpeklQ9vHyoIuskoN5JToyS3vZemuUZZVOrj+oIVn6pyMus7SGfgTL/TO8NJgjInkGSYicSYjIoR9mS8ct5GhGUYqN/GrulH6lDOU6EN8uEjP0vUnyNrYwe+qBql2v8baIgFig2p3ZOFQBN3xRtZqjnKFro7P7x1gwv1HTME/ca+2i8xyE7nlzbQ7BI8zT+XYFA/s6ya3pEGt8lyhaeDLjSG+Uhc6XxI8ztHuIX5nPc2NW/U8un8Q7XiKz/+lM3FZUScZusWo8eqSevShM3TKf+KhHaI0LVKiAfomFkikpnCHU0wEUvQGEpQ19PP8vhZ+vqOVH25v54c7Onl6SyfPbu3h2zu7+eVOPc9sM3GrTk+OTnAyem4qHeIbW7v5ZkUN39ms59nN7Ty7pYVntzTxzNbjPLW9hu/tOs5zB/sYGLfjDvuZnErzQoOND2u7yBFl3lIDW/sm8Iam1M5NrywI3BRHJqJ8eN1RVuS3srJwkIJuB0HfDOsmQtx3YJibdkywrHyI5UVj5BQa+di2YR455OL+Ywr31tjYOixIxVOE4mdo6nORXd7BmgIzUuEgq9Z3sLpcz+dO+nhh4hy/HTvNA5UTXF/SwVUbRGnRwOM79NRNxvEkFnBHUoyFZrhNRAi6NpYWdPDh/Baqx2PqmEVa4bmMPV/K1sU56XIXdNniFNeP8qWtjVxX3sTykm41FcgoaGNNeTMPHh6mbWJGDZnLei1IRSeRtA18euc4E+4kFt9ZdvbIPHp4kGWbBWPfotZQV5V08SFNLc9V9mAKJLFG5vCFRQNQnKiSxjgeZXWZyB/bkMrraR6J4pXnMPtnWd9sRdIeR9LpWb25mZ0jDiaiCVzhOCHRwRhKs7XTjVTQpzK/d+4b4VdVTfz2hJ7fN4/w9SN9XF9az5rCJm5/aYy+4DwjoXk29Sa456U2Plx4nO/VGdEnpogHwiRC05hCCR455iRbq+cKTRPlRtEvMYdPmcIViTIROct9+8xcIcLG37WxXu/lRWOIJ5s8PN0g8xt9iJ90Olmlkl+t3Le9izyjTJUthd49j9GVYsg/rYaElvAULbZpvr1fz48qB9mr92GRZ/AqC3jkFI8esy7W4rWDbKhxYve+hkX+E1sHZ7kqv53bNukpMb3C78deYUXJInG5XNfBjaXdXFkq+hBa+eYeNyfHRMNLmuHQG9y1oYnMkkFyy9totcWwylNMBtJ8pclD1vo6btw9yC96QrQHX2Z9ncxNFYMs3dZO9UCE0UCKLleEFk+a/2x0Iuna1Jz+E0U9KnmaWTBEhdHGDvcpPlq+2JC1aq+eVtccU5EpPBHRRh6gO5jksT3drBRRjUZwBIKoEyTyIJJIUcTn0m6kvBNI+fVk5veRqdUveuPiWqTSNlX3Fpu+BhZ5lqI+skUFQGvio5taOD7iwafMEJITHBsPcENxHVLZkEpePlk7rjaBWcIxXOEUI8EF/qvOSnaxaCbq4EMVnTSaY/gDM7jVVvPTbBk7y2rNACu1wyqn8oUqG3blDD7lVazKGSZEShmaxSfPU2P0ckVZO5liPJo+PlPcSsOIgjt0CmfoDJ7gHE3el/n8zkXyOaOoj+UlrbzY5WAiPP+egHC9AISJRUCwq4AwdUkHfzl7l3yRKS4lhtArfKfOznJhnJqTqkFnbNdzz5FBNvWFMNnnCYg8O5SkesjJHZWD3H9whJ/V+3FERM4+jzV4iqHgGSrH4vyywcJ1xQ1q2LhSV8c3Knvp90Rxihw5nCYYnCMcPktZ3TiZGuFVO7iyvIlWcwC/Mq3mxnuNDq4sPqbWwjOKW/lD9xjmUBJHNI5fieGNpKno8iNpR8nWGskpbCG3oBOpzKiGd9nFI+QWG8gp7ebOXVbGBMMdnGLn6BRXFraTU27gqi0t/NrkZMyfJppIM6KEub86RK7WxFptJ1uHYjiVWTyRBO5ogvHoGe7ZN87SvC6W/OY4e4e89IWS9MhzTMT+SDB0lrbJJLdsFRxCN5nFem7cbeb2g2buqZrkrkNW/u2Ai/v2erhz1zg3bDOToTNxdVEPPzo2gSv4MlPBeXxyjIePOVWFkgoG+HnNqFpmjcbELtM4hwfjaAfn+VVTgju3mVlR2M2aEiPLNX3kFPRzhVbP0o3DVDuncMRFf8MUffE3uCW/lcziYXLLO2mxJ5kMJ/H4XejHFXZ0umixBhgKzXBkWOahne3cdzxIUafCQPA0o0FR7kwy6k/xi0O9ZJV0kFM+yLerhtVniY7GXzWP8suhFGuK9WRqu7n/xDjm8BkigkgU6Yk8RWdwjh/XW3iwcoK7D9q466CZmw6ZuePgBLfvcXJ1hZUM0ZRU0ENGYTerRAmvVOTt3VxRNsyde8b52MEJbttr5q5dE3xil41799i4f9cwn9lv4emD7TS7nQTD8wSD0wz4Znl8u2hEW1yTu/b2Y3KLKkSSyWiaJnea7x4ZQxINTyWdPHjAxKhvhmBoSq1AiP0mW8zJxe5IrYksjYmnjo3jkWeRQwK8RbeqaISaw6OkqTH51Ka6pYUCoAz8cFcfZn+KuJImIS8QVWYxx87wm8ZhpCIzOcXDZGo7+XHtJKbgaRU4x4Iz3LZtiCW6dpYWdnJDYRvHxuNqhOCKzOKNTF/Sni9l6+LcZQEhmvgjLdZTPL6vn1Vbmvja0VG29QXodMdxJ9NEFRE2i5psgsODHu6vsfDlmkl+2RrEHBS9ASm84XlVnHIac2CGaovMfx0b5oHdHWwfsDIuGiois7hDM7iC00wEpnl460nVE0tFQzx4yEx3MIVl5hTm+Dydyit8ZmMHWXndZBV28JVDLZjd0zgj0zjDCRzRBSo6PUiFBjK1g6wqbCZDtAOLsp5OdAIOk6XrZXlxN5/YaWU0NItHEKfB03yjycXy0mak4nZu3DnE9ok5gknR+BPkjqNxlmlNXKXtYJd5Vk1z3NEk3miMsehpPrl7HKlANDe1sWPUhzkcxS2HmQ3GmQ6JPDbJ9zs9fOglwYqLFumu8+x5F5JONPqI+vQoUskwUonwft3cXd7NLnMad+gMITlNQE4sAoLWoBrGr056GA6ew6mcUveO6LqTXLNfNMp0qXl99u87ubJoiOWFBq7QjahMeFbxEP9RY0IfjTIRn8GUfJ27te1kFouUQQDCNJPKND6fh5FgmrqxGJ3OOIfMCb56wEx2YS+rdD0Udbg5YU7RMZGg1RyjxT5Du/wyz1eP8bNGF9XWNB/aLNrZ27lvj4m7D7rI0Q2wqqSH53uC2CJnCAZieESHZOQ0k5FpRoNJDIEkBmVG9dK+8BT2SJJqc5Rbd5nJ1vaToW1njaaWbzc6+HhFA8sF0VkxwHZ9jJFwmMlwEEs4wnB4hg5HiO3mU/T4/xunKFHHpwhGF/CrJcg0+bUTZJaZyCgZYGV5F0f6grji81jiZ9kxFuOebaJEqFcrGLoup2rsYl+LUz6FNTzF1gmFVboWlusGVEB4unqUQGiGWCitEs4ueRanPPs2QFhRKNa5n58eGmAwMIM3PLdoI5FZHJFZ6vomkLRjZOiGVL346j4TPcEzuKNpzMFZbq8YIUdUoQo7ufEvacPR8RgTIt2OpP75gCDCK1/4NObJGYYGE7iUV3BG02rO7g+H8SpTBENi08UUmharyqALbuH+w2YVJPyRBbXHwB47jSc6RzAyhSsmQsQ01WYbk6JJREngjEzhDIluuQV67FPcVFzLGk2XOin3VNmpMIU4MB7loDnOntF5vn8wRE6BnmxdC7duP0nnUFht3hCNHLbIKSq6PCqhKRUYeeSog84hL23DCh1j0+zoTvD47lFyipu4a6eZMcEFKKeIBU9xfHKWW8pbVXJ0SekIT9aKbr4UY4EgVx+MsUzbz7W6TvZZ0rjCaVzRaZyxOCPh03xip8gNO7kif4SDIynMoQWswVlcjml8obPogwscdb5KuSHJ5kYv64/Y+eH2UZ7ZP8n39o/xiyoz+cfNaE+MsbW6n7KuURrtMhOiUzGRxhs7SyA0y8PVDtXDCEP7TV2c9vHX2dGe5N/3TpAhSnN5Ii3r5MbNPeQWG1lSNsLaMiNfrQuztnhQreUvLejkR3WjjAZnMUTe4K7CJrKK+8gtb1cBwRJO44ik+PXEWXJKxG/6ySrsZtmGTnJeGCB3QydS6TEk0Wey0bzYbl3Syb83CA5kDpP/NDb/Kb5VKfiGWtYUdbOmWERsg9y4qY965yx+eQG32NEqJ/GE5vFF4wQjCbXCYU9M442dY9A9zwbjDDftGGeJtpuMssW+h182TmIMvYKmukVtoxdRyBePNmANnsarpDFHFtg/pvDU9ma11PeT+ggdziQjEYUx0YMgUhV5loahENmbWsksGSW7uJO8OgvuxDms0VfQ6P1cV9a8CAjaehpGZHxhUZKN4w6fVVuxt08kWaPrVPeHiAjhG9WLEYIiz6sRguitcSnviBBEY1LJgAoIw0HhMNN4RFk5cgpPeJYuo1NNcdTIRNfBV/f30ROcfx9AaOPoRPQfBwj+6DSXkuFYis0jPv6g91PUK8p+KTb0z7K+b4YX+6f5dc80vzal+WHfNPdVTZJR1EamtpWbdw7wnS6F3w3P8XtjinUDU6wbiLJuQFkUQ4J1fRF+3Rek0xXDERMgk8YafZV1J80qAqoTUtRDhq6b7KIucjRdLMnrIfvFXjLXC4/aS45oftHU8fyJEXVCvdFZJsNptvWIOrYorQ3wvWY//sQ0rtgMjtgp6m0zPLKlhSXFzdy2y6yWlvyRs3iiZ7FHTlPaG+D6dQdYXiYIxDbyDQ6GvUmkCgvLdAZuLmqkyh7HFUnijCbxxBL0Bea5c+e46g1v0NRQOTbHcPC/GXKfwxM4y0T0HI8e1ZO7pYUVm+qZDM2gDyzw+a0dLCvpJaesizZbAGdE5phfpi9yBlvyVRxKWi1/idKTM/waoehZHhKAIPLQkh7u3TfIp/b2skxznMxNogTWwm15tZQ1D3HAeoY1ZR1qZeP2sn6Oj/+RGoOPD+dVckVxP1nFgzxVNUKN+0/csb6RrNIecje1qSmDNZYiOPM6ecMRlhXVkSl4gXwTuVovy3RuVhf3kFvQzNIXGrlJa2JNvigFt/KzbplJfwpXWHjFeU72h5CKmlhebmR16TDLC/t44qgLr3yGoJwkoETxhiL4RZNXbB5P8iyWqddoV15jw5CL+/eNkF08wHLRGpxXx0MbT7C9z86ofwY5MEevRWHtpg6yiwbJKq7nxFCIfuUszzdPcusWPdlFvSwt7OCOTa1sHvfR408xGZnBEZnGHUsx5o/zmyrRGNZPZmErjx7oYTT2R/Txl/na8X4ydHVkFPTy0BEXoj1Y9Mc4RToVnccZS7PDMsXaog6W60bULtSvVLoIxdIElRkEMSn2tohyoQjlTwx5uaJ0kOXC8xcP8NPDQwwHRZg/hydyCm80jV1ENRNizoxkaQSH0sUX9/XSFT6LJ5ZmPDi3GCEUdbJMjRDaOGqJYRERdnQWX3TmkvZ8KVsX56TLXdDgPMUje3pZq2vkmvJ+rirsZq2mX23AWavVs0ZnZG2xgdVlBpaXG9RuMamgk8yCdpZpO7myrIe1xV2s1bazVtvKWl0za7VCOlhb3MQaXT0vdYpNJ4JBn0fvW+DJ/WLzj0Gtc6ttsSVdSELUWq0gpQxqOpCt6SdLp1e5hkd2tjMaOYMnksIZWWCH3o+UJ1qO+/lBvQd/YlYFBGfsNA32GR7ceFIFhFt2mzEKZYyewR1Lq96lP/oazxweZOUfDvHRgjryWkcZtkSQNhnI1Q5yV2kbNU7BWSSwR6bwRqO0e2b4eIXo8W/nWs1JXuiN891aG4/s7qFi8gzW6J956JDoYe8kq7RJbQ3uDS3wkOgHEF69uIP+0QSmYIqvH7Xw+b1jPN9kpd0tPOU8rlCc4dg0gcg5Hjou9oyI+enhW2JT0+52lm44xKrNXXzx4CBVA/MMyQsc8b/Gmo1N6iam2zcNcML5KtbkAgUdLm4SuxfL+/nkuhq2D57lzsJWteswd5OIEOKogKCk6XLM8FtTmAcqx7mqeIC1JaPct32CF1tHKO+081xrUi1DLi3Wc4uulUNOsQZzquGIzV8ma4K1O0xklhhYpjVyjdbA7/vmCYXPISvTBOUoHrGvwD/NQChNpecUP28P8Ll9I1y/qYucdW1I6zrJERucStp5rqYfkzKLV04RDs0w4Z/meyfHySw2IuU38tA2UYYc4MbiFrLzWskuGuLhHcPoukL0BtJqk48nLiK7lCqTcpI9PeNklIjOx1ZufqmRVvcCh71n+OS2NjJL28nK6+Q3fWlckTmc4bgqItoV+rJ7cpq1RaL8Pqo6qM8fsBOITOMXVa+QaJEWVRQBCElODHm4onSEZdpBpGIjPz48xFBQzNUc/vApZGUeW/g0R0x+tbVZdP+KLeZPHh6i9z0AYfl5QKgSgCAA+B8CCLEZ/JeQbvkNPrVbMLwtSJsGyc7vUfOfrKIesov0ZJaYyC4dIqt0SD1mFItrTYu7C4sHydTp1ZblzLwmsgoayC48Sa62nlytaHCpJ1N7Em39APaZs9ijpzk8EuUT2zrIFPcoNfKxrd3cv1PPgzv0PLSrl4d2DfDIrmEe3WHmo0WijttNtrada0traPPO4FBSeGNn2N0bVJloEep+76QTX2IORzyFI3aWk44UnymtJbekmZv3jGMMzeOJnsGREA0gc5ijr7JvdIrv7ell80CEDtHb74yqeWqObpDPbuqlwZNSowN7ZAZvLEatNcr1mwxqc8md2g6eOe7lOm092YV13L1vHJP/z3z+sMine8goacQcSKKXT/GAAASN6L7rYMgyy9bRCKt1Rpbk9fPpjY0cGPHjEeOSIxgTEXzRV3moRlQZBPj28Pt6G7sGAjz6Uh3fb3Fz0pri2NhZKuwJfjYQY5kIeXU9fLysl8PWOcZDEYZD5/hNm5ebdScpaPTSEPxv7tQ2kVXaTe7GHlocSWzxObzRFJ7oOQ6F/8gjVWau3WzgunITP2wMMz51Cmd4gV/0zKjM/9LiVp49Os5Q5DV8sVn8CeEZF8P+e0Ubc7FB3eNyQ/EgFe4/IUdfRwnPEVLi+OQk7ugcleMRHt7RwdUlrSxVu1715GgN5Gj7yRHcj66dX9QbcSYWUCJzBJQZ3MFpjtmS3LRdGKTgSwZYpu1iWWEbN5QaeOKQm2NW8S/9TuONnEGOn8KXEKXilCoCGNonA1xdrlfBekVZLbsGohSY57imtIXcTQY+VGagyv4KntgsrmgcVzSBJ5ZSS4F7bDNcVdzKcq1ZnedHD9hQYil8sQQedaeiqKKk8EanqFUjhFGW6QaRigbVhqthZR5vbA5/dJ5YaA7X1OtoRNu90AFRttW189MGK4PRl/HG59WqxR3bRskp6mK5posbC9upmhQl6Tm8sVl8sdQl7flSti7OSZe7wCS/wg8abNxVNcYDNT4e3W/hvsoxPl01yP1Vw3ymysaabeNkbxwlq3SYjPMvKxWNkakb4tpNgzx01MkXjll5/LiZL9UML8rxSR46NsajR4c4MeJmIp5iXDlFcZuTtSX1LFU3gOjZ0ONnMPZHxiJ/xPgXMrFfOYdRfpXR4J/5ZUOItaU9LNW0k1NSzQ69Xe2uc0bPskcfQsoTJdB+vtvgwBmbYzI2i33qNeq9p3hwcwNLS5r5yJ5xBkLzquewJOZxReewRl9mxHeWEdcCttBpJlPz9IzZkHRNZOtMPLZ1gA7vnKocdkEqxuLsHvCwRmye0nTwFZ2eCst/c3eFCOuFsXdxaHCORyrHVHZcKjrBkD9Ot3KKz24VXWrdSOVd9Nrm+FLtCFLJONmlozxXb6VHFso7p3I2Q/EknshrPHB8YjF313WRd3yQycA8LfYpBhN/xvOXfwZyT1EjucUHyS1uUXvmxf77f9tuos49r/7/RGdgDr0yz86RJCbfy5im/8wnSxrIKtWTu7GPFseUCgiWxDRmZYHfd3u5urCa3NIO1pT28/CeSfb0e6nu83JreR+Zumbu3tnLfvOs2lMi0jZhAL7YHN0jMjftGGZJqYkczQBrdAZ+aVjAEXyVgEqSTuGXxf/YjFMXOMXjNWZWV/SS/ReeZk2JgXsOTXBNWR9Z2n41ivpt4xD++Cmi4j9NKbMqqIzLaX7UFUcqN7Ai30R2iYlrtw7yn51T9IX/TDCSJhxOEIosEBRMfFx498UIwRMXuw2TPLZf6Gs7GeX1/NdxG9/pipJb3M6S0l4+c9DCWOA13NEpXNGYuu6e2DTu+Dx77TNcXdTMMs2Yuo4P7BlXgcoXn8ETSqhVMQGs3uj0eUAYXgQErYnvHx5mUJnHHRdAk0L2xhlWXuHRLSeQik2sKDZxVWknJcYwk/FLAIJFAMLsvwYQ/Ik4pngK0+wbWFP/zUjkFGORORyxOezxM4xEX+dTlZMs22wit8TAEp1QECFGdZPPl7cPUOv5IxPxN3BFXsEVPauKyIdt8muqtwonzhBU5jA55vjPw0Nk62pZpR0ge1MfRwa9ROQ5Iv5pvIow1mmVjRZ5ueid/4iukWViz0J5PX842sto5LTaE7BXBYQ6td/9iWMTNJsC1A96aRqdZkuPwi3rDquAcKOIEJQF7Mo89sgp7PF5PImXUeLniEUWVIWbTJzjiEkwvyfI1nXz9Z399PpncccjWGMRtfSobR4jd4MgoDr51TET3ZE/853jFpaWiD0TDfyq1s/9lRYyxV748pP0+2J0hE/zwDbxfwX0SFv0FLXLrHqpmyvKndxa3kGXaw45flYlnUQVwaa8iifyOp89bj4PCB3k1w7g9ScIBeeIRl9Fjkb4fENELRGLLkzx/xdyNvfz79UO7FNv4AyGGIxG8UZSWCKv4o+9hjGywL0lNWSW9JK70UiLYwZbfB6f4HVSf+Kg/3W+3BJg+SaxgUh0KU5wbalR3ewkFTZwzeYe8juDmORX8SZfwR8XacMsE94ZfqcCXhtXlw+zrNhEhq6fj23q45gxhsWTwi+nCMgp/NE5hmPzbPGe4r6DQzzRFqXMOUtVbIFH9wtvaULSNvOHhiHk5MvEE+cY983isEVpG/GzyzTLyoYgV+cNkVPYyxJtI/fuamfviBt/JIk7EsQSm1c3CjkjMzijM6oRCkBwxVL8ttnBKm2z2ofxrS39iN6VnI16crVN/LAnhC98FpcgxFVAiOGJTeGJL3DAPsM1RQ2LgKDt4NaSXkzDPlyyaGoTLfACHBeNVY0QyoxqpUrs/XlYV8+h7gmMHpmx8Ax2S4Dy+kk+WlKnRtvLiwa4a1s/ByemcQk9eM8IoZMqS+IfBwiBeIpLSTAhwp8U3vgs7sQsluQUvbPTtCjTvNjr4lN7BrmyuIcVpX0sK2rli1UDlA2d5pptA2rpTqDsLeXN/K7OTs9kCp98lmT0LNHwq8QiZwip+VaMcCTFQWuKj5c0c5XYgpxn5OYdozjkeXUhRDegO5bEFUuoEojPqbnkl/d3kFvUwpItTVxffkQ1IiX4R/bpYyzRtao70LLKW8naWE9GeRsZm+rJ2txC7pZucrd08dH9JoYjL+OKzBMOC2JnDjk6Syw+SzQ+SzByCkP0LN+otqg7NJfm9/OHBicT4QWCsSjuWIDxaIJv7jexvFBszx5gW9cIA4k5SkYifLy8jRu2tvP1lgifqbSTq+lhibaFHo/MydAsn9nVsbhT7yX9/8fee8fZcVb3/7N91SVXbIxNwMYGG7ADJKEY+P5S6DUEMARSSAImJFQbS7t72xZVW5KbJMvqsqSVtmh7773v3t7bFq2aLfcC9vvHeeZe7UpWcZGN1tk/zmvmzp0795lnzvk8pw9f29RJQu5ersipYHWVnxbXMXodh+gRoHJGaXdOMuCI8rntrSotVoDkzv09lIyM0uCM0uIeVWRuC/G9nY18f1cD/7p/gNzaIGX2E/QEjtMTGKMnEKTTfZhWV5gaR4jSwSN8wihJPYWk31PAgW43Xa4xulyjuOwBnA43Pf4A5dYQv9zlRMsWJ1wpc1QzmWL+Lms/m6pstPWPMWQL0+9zUG7z8A/3FqqKxBTTbuatqyB5ZaX6nPqrfD6wsoqNdb30ebuxuewMuD0MSuNeW4AuEQ6bD6szREXnCDfcJ/4DAdu9fH1jN7nikN5Rz9+v2M7CVX1oy2tZs72Hiu7DXLuuknmmAiQzNOGex1hsKeJ/Hh0gv9nLkOcQnqEQA+LEc/rpd3oYdPsZcIV5tK6P67Ilo3Y3N/z2Ma67ex9XZx7ghuwispvGqPU8Ta+s+s6goj53gAHXGEVD43zt0Sblp0nJkDZ9+/i4pZyvr2nk7x9sYnV5OwNOB0OucbY1uLjcspnFd9fqnbKWbSU1czcfyq3ks7n13JYj5kkZi7KLmWusYdGynWSUDdFgjzDoCdPtjdDmDPKFzWJSFKqoS2JmIdcvlwxKKYE/xoAreE55Ppesy3fa+U4YdoURR1yj8zDlQ+NsKB/gn/Z08/F7G1lolPJeeVAlLDBXcNsDtWwY9FPpHOU3lU7+IlsyyyQ8lc8lmfl8JK+Er25swlTl5dGucayDUXodAfqF4bwh7iwfJEnV1leS8LsqPr1d1LMwvS5BYze9LgEED91uH0PeEF3uMHdsLmRuxj4WZ1eQunQz5go7LcMnWF/oVOXYczLKSDKKt1bUZ6Gd6qFLBOFq0w5uW7dfxcMH7eJfCNMgAmIPU20dpWNoks6hE+zpgVgF/AAAIABJREFUPsYtOQ2kGYu48k+9HlYUddPjiDIi2ZFOO9u7PdyQI76Tem7I3Mf2mm463UH2dXoxFw7zUEeE9X1P8/892Mziu/O5LHM3JR2jbOkd5WP3FqEZy0iwdPJo3Qj31VlZVdxP03C/Skbq65ugbyiqxtbmHcPqiPL327pIkVLszFo+cl8t39nZxo/3tvOjGP3T7m6+vr1O0Te3t3HH3h7u2NvFHXs7uGNvu6Lv7+rkH3c08O3dLXxr7wCX/H4vicvE/MrngDTAdYkmF6TPGqHBHuaAPciymgH+Zn0NKWbJtKtAM0v6ei2Jy8q51VhKbrGVBtsxHq61cttDUpJcw6V3VXJLbiGGYieZVVFuyJFU6hI0Qy2LVu7nkUYPNeKrcPkZdEiOgJcBp0SEPHQ6rWxpdPKe3HLmqmSeEuZnVLHAVEeSuRpNrmUuUVWr0ouy3OtnU/sYX9vWxCLzTjSTjK+YBGMRl60r5de7GtlZb6NzJMiA+h8nQy43Q+4wJU47n9xUzBzjftIzSkk15jMvexcff6iUUusJ+uxHT4KBgEKfO8iwK0qnfYK1tQ7eK1m4Zon25KMZROOrJCm7lB8+Vk+Dw8eQe5T8BhtX5Ehat/hiyrhxbQNzzJLIVUZqZiXJym9QzdzMGtVM6J83V1MmvS5d4pMJMegao9sR5d7SfhKX53OFZPEaC0kyVfKNR7pptB1/84AgGsC5aOvwBN94rI3rHqggeVUhmqWCBRntaKZ2tOxqUkz7+cjycn66d5CtXVHafOMM2oK0eY6yoT3MrSvEUXWAxZYKFhqqSVgqDFGlWoSl5dVy26PtZOW309w7ybI9HfylOZ9bzJV8Kq8CU7WbQfeoQvFBt5c+j48ej48+X4Bub4AuZ4AHKpu45b7dfOK+Sm6+fx/f3VxMsfNxVhZbVYsv6TXwNw80kb3HwYrHhhTl7enH9FgHmTsbWHagVq1qoqFIm6u9XQHev1Jamu1DyyshKbuKJEsTKVmtzDU0c+Ovd1DQ5mTEFWXEGVb1Bf+R30fiPZWkiH8h5wBXrG/lLzZ0c926dq5e08y71lVxxdpKFuRJXkAZCy1FfOTBVj7wcBvz8iRaUMocQwUfWNfOx9a3cfNDVdy4sYrrHuriloe7lA+n3jWKzeXH4Rjli9s6SJeIi6ERLaMO7R4plpkiqSNIl2SZjHzSl+0nKSOm6osdLvOvSJx0uoNYPQ/JZJQQ3dJ9FHSP0OM6TLk1TF6Lj4/t7OCStQ0kiNM0q5SkzHI+tKKEex5r5UuPNJP2q218fm0tdzUf4u+3davrvCujnff+ppwrc6t4oLwFV78bq2OM3JJuPmTaw4JMPelmQW4pyysd9LnCunA6nQw6PQx4w1QNevn8il1oedUkZLWiGVpJNYqtLgBfTHLuQW5bVcD3NpaxtaaLOreX4f7jVPY/wW+LrXxwVQGLl+1WVa3Sri4l42H+e0cDrcM+hp0ehp0urC4PVneIlkAUY1U7Nxoe4cOmx7g1Zzt/s3wzP91eyqDjCD3uMP0u8T/o1O8JMegJMeyWPh5hVha08IFVu0iWwq/cehJW1nPp8gp+uKlc+a7Eybq/sZ9PrdjLR3P38J37CtjRe4iMgmFuXV5CqvhiTDXMNzXwgT+Ft1cWdlI7GFR8ZncEsTnFfIwy7J2gpcfDD/KbmJ9TjmYpJdlYxRc3dFHQM8GQO3hOeT6XrMt32vlOKHYe5VP3ljPHLAkolSRkNqKZq9DWSD3AJv51/V4eqBqkwT7JgPcow+6jDLoO0+QT1XGMSluI3z3WyvViSxrySbRUoplqSDRJaLGMqzP2sb6ulw7PMYYCh2m3BWgdmWTIfZSwXcAgchIQ+gUMPH56/UHafIK6ATokS9AeYmRwklrHIXqHItjsR1hbIg06HkD75Qbu2NGGz/UsDvczilzuJ3G4jtLrGqfVE8Jm9zPsDBJS9uxhPrlectullr8a7S7phFNDcmYDiy21/Cq/i15XAJtbQpUTNI5M8N0HpVnqPtIytvODRwtYtNyGZmxEM0jRTBmaqZTkjDKSM6pIXCq+CInCVKJlSOak1BrIf0lloJQUV6vwWqIcu7uOhZm1/L91ldS4wwx6XHjcYb6xp1lvBqty8PW8eL2hqlynRMX9JfavtDcRCGnCclcRmqj4vxeSvoN79a18vqdQhW9TDWUxQBhSgCC9ID6+7gCJuQVoeS0kWRr4wKp6frfZw4E2D96gl37bJPcXN9I44leh2Pf+dr0KDycYGrl15S7WVrfTH/DTEhymKyBvWHKyqbyf25ZLKnkBn8gtpLVmWAnckEuqAu0MujwM+yI43V7+fav8tzhmS5iXWcJ7s4v42gPVZO5tZ5doYq5RrJ5j2H3HcPhG6XGM4Rg8wkjfExTUR/nxhjrm521DsxTxrYeL6Bs5yogjgNXp0cnlZcTtI+AOqQSzNm+QEfthBuxH6XYdpcdzhAFrhJbA6KsAod8ToMfnp8cfJOwTR7SD6lIbu4utbCwdYFezlYquYfrcXtq94gfw0+4I0alyDsbptoaxBo7RPhDmYM0IWwu6KagcobcrhMdxmBEFOFEGnSFltve7fFi9UcRc7hsap6k5xL4/+dG2lvRR0mal1+FnyO19c4Aw7AlyLmoLHSa7podb8zZxefbDXLtyKz/aWsvS3XVsbuzRC5OcIfo8kuIbxOoJMOz00+320ul00e5y0+gIsLPLQW5tP9/fUMyns7dzS8bDfOCX6/jnTWXUB0fp9blx+kexOSYYsR/C7pzE6ZhgyBNmyBNgyONj0BNgwBNg0Bemz+1n0B1g0BNE0HrEE2HAF1XqX58zTFGbnZUlnaws6WN3q4NO2yi9Lp3EOaNi0e4w3Z6QUv/63BK2CdDjGSdjXyt/a97N7YbdfDZrF1/I2cf3Hyjn7oJeyrqD2HyHsbpHGXCHaXeGeaShj18/Vsc/37+HdS1WvrO+iC8v38mXVu7kiyt28aWVuxV9ZdUevrY6n2+seoyvrt7FV9bs5MtrdvKlNbv50uo9fHX1Pr6+Jp9vrN7HN1bl8+1VBfzg/oPcvauGOlcYu9y7d5QDXU62NVt5tNnB1hYn21qcqiJOquK2t7rZ1GhlY6OVTQ12NjbYeKTBwSP1DjbVO3ikTvbtbGpwsKnByeZ6B2sbvdxs2M7czJ0suWcTe3q8DDkP0WAfZ23jEP/PcB9fXbuLuwqayf9T+7J22xGG3Iexesawe8eVGivO2Fr3ODnFbXzqrvv40SPlbO7y0+qbxOaLMOwLMiLkDdPjHmNj9SD/vrGMByqH6HMdotcTocct8y9aoJ9+X1Q9z00NXXwx+yF+sH4PlqJ2tjQ7qBiK0OoYp9s9Rr9nTCX0DLtHGfGMMuAIM2SPMGSLMmAfVV2H9jQ7Me+up6zNzYjzCMOOCCOuECPOkFp5re4wdq+fYV+AYZ/wUhirJ8qIJ4rVO8qQLcCIT553gP4Yyf6gx8+Ax8eAx8+I8KMnwIhoOqJNeIRHgwyIKeT20yeZly45P8SQLHIuWVBCjHhHGfaM6sfcEbUdcYdR5I0wLPzvlt/IdXzYfCKvfiWzg+5xuhxRupxRFZoWs0JkUOhcMn2u77RzfSnf9XiiVAz7WFPbjqWxi3s7hqgaCtNjjzAgDkk1WFFT/Ay5fIzEqN/to9fjptfjodcdoNsTpsU1SpVjjHz7KOs7HZiL2tk/EKJLMYsDpzeI0zl6kuwumSz9Boc8fgUMAgBC6oGIuRMDovhEyHfyILpcYTpc4owbU5EDUfmU0Ivgu0P0xkjte0L0ekIKHLo8UaqHJYznZ0ezl/y+CPv7wpRZx2jyHWfIO4nVPY7NG2XIG6TfF6LXP0aDPUBZn4tW/6TSiooHfRQM+Dgw6KdgOETRcFSFEItHIpSOhCge8VFo9VIw4lMkuQ4HBgMc6PdT1B+iZChK6fAopVIDMRyk2RXWH7JbUnwl1hxUJDF/IYlBi8dcQpRiSnU5xZMuuRJno6jOTI4orc5xcgua+c2BVrKKWqkZ8DLsCNHhDFE54mNfr40DI15qHQKaoww7x1Q575BrlBGXLiTdbnGCBikd8LC1vocyaff2p2y/btdYTI3VmVRAXISi2z1KhbzezzNBn2+cXnGaqWcQpNsTpNcrKnpIvSVsf5dVjaNVbHaHxO2jyuPeJ4LnjihH8KBkB7oiimR/0BHWBd8ppt24ypoccR5i2DHOsDoWYcSp07A7yrDHx7DPj00AwSsLWwibJ6yTM4SAhvDcqeRTGbCSBavzp6zQorlOJx0QxGSQUKT8fsgVmiK3PNfQWQRYvos9d1kU3T59nB7xofkY9I3R543S74kyIAuiWjx1UDifXJ/t+/MCgqBdnzuqBKzXN8agdyxmPwexigrjCmB1i63jPwkGAgoySf1uLwIM/Qop5QFH6fdO0O4do94zRrP7EL3+I4z4Qth8bhweH05X6CRJd59hsYkUKOiAEBf8qe0UKsoxBRYCCiIc00gSk85GcXDQGTJCv2+SwcAxer1H6PZO0uWdpNM7TqdXTJiwWl2sog0J4/hCWH0RHOFRbIGoSsgR1bBTzBl3kA53mA53lE73GF3uUbrc4/S4RumWzElPgC5PgE5PiA5PmE6ZZ3eUXtcYvW4Rkgl6PePqWIcwuTekojIjdh9Wh1/RsMPPsEv3A+nCJgInq9a5SYBcSLQcSdQZ8EjCjn5/gw7x8HuRWHunIkn5Fu96iCFZXZ1RBh0ifDIX8qw99Hk8dLm8qqtxrzCod0L1H5R05LhZKkyotLqYYA35IgyJaekNKw2zx62DstLaREjEryPhbY84kEMK8MSLLgIlarNkn6rxy+dpgKCAQQm7gEGMBLycY1Of5XtXhGGhaYAgYPAqQHCFFSCo+T0FFF4rIJwKJKcCgoDBawMEBVoCXAII6vlG6FNgoAOCRCLiC+TZBP58xzWxU85FglCikguqD7tDOFyClvoNWN1+BQY2jxwLnkL6Si5qlAipriYNuUWlF/VIGE8YMKKYYVgegs+P3RPE6Q6dJLtC6VPHp09efBLPvJVJEeGfrhHIZJ2NBFmF+hTJmEYVQ/d6RumJUZcnQpe6RogRuVdPQI3X4Qli8wSx+/3YfX6GvV4GPF7E3yE25oDSWEIxp5kI0ZhaoYadAaVmiqopoKdTmGGlLkYYcQujjiqnlWJ+UUVFlXWK/TuNxJ8h8x97jvr8BBgW0+2MpM/ZiKi3iiLK3JJrK3NM1FFxtLk8ajUbdgnw+HDYxaEZxOoU4RBQkK08dxm/h0GPnO+j3ymaojjARHvQxx9nQmUTK3U2NjZR073CI8JfOiiI6SnPQT7bRCtyh9W8S2WtzKWAvtyXmJGiosszFVVZnHunk4xTpyg2zyg2zxhWyXI8eVyfZzENZC7kuvF5EcAXDcHuieBQvxX1XV9wdJ6WfRm7TlNzLer8dJKxnvo7uaeT5AkrE+XMMqg/G/274Mmxxcc67JFwZJQhj2g4Mj7dxBAeOPP1zn/8NQCCPCz9huIPVoRf9s8MCDE0VcIjv9MFMS50+jaqbiQOGvpk6uqZwxMiTsLoQtNv7rUCQvx/X8v21LHpzCjHlB0YY04dLORedKYccYtm5MemQNGP1ePF5vExohBcGCKgADT+4F+1golWFf9tDEzj505thWF1e1KETMD5dOCVz/F5On2ups/b6ftTv4lgizHTkFcYS1eNZVWXexUVV6IbLqcfp1Pu91Tg13lAQEEESkxHfQU/eQ/T7FkZQ5yH4oKnH9N5TPhMFh6Ze3luoqYLnT73InCiouvCqJ978v+mCVv89zoI6KCg709dW82vRwRvChDk+joghBQg2C9mQPBGGDoJBhcAEKzeMOcicQKdTnZ5WOp3OjPK59NJvj/1dxFGvEJTx+PX0I9FsJ7lOuca39m+O10ATj9v+jim9gVtp8aokDY23ulAJOfrq4fctzCNoHfo5DxOfaefJw5P8Q7Lqj9Fcn7M7HjVMxBnlk7i4NLvRa4RxuYOnUKiGZx+b2/k89QciCYSXznFHNM1Qrs7hNDp/z99nuV/p3+ePifnG9P0/1f7shjIf8r9e8PKtDh5jgIW0TpFW5s+p/EV9dStzKVNtAI1z1NzG59jfXuWZxHzI5xv/G/P99N5Rkyb6DTS+fbNjkN7sxc41+9PPsBXMXwcUPStnCfXmS5IU6Bz6rnn+r/X8930scX3X8/vp86NP6TXOs44Q8r5Z2HC88zX1H+/1v98/eedVZhjoC1jOOs5F2L80/7nTPerntlp2uOZztOPTZ9z2T/TfFy8z2JqvHFe08ca59vp26lzz3SP5z/2lgLCmx3c7O/P/wDfqjl6S4X9jAL557vXt2oOZ+J1NfGQz9LsHMzywCwPCA/MAsIsIM4uCLM8cJIHNJs/yizNzsEsD8zygPDALCDMAuLsgjDLAyd5QLMHRpml2TmY5YFZHhAe0NoHbBysaXpLQMEWkHTeKXqjTDf9Ghdy/42OZ/Z3fx7huZDP/kJd653GC9oXvvpNGjr63xQgOPyjqlJRqhVlXybpjU74m/ntmf9zHFtglmbn4MLzwEhgnJHgGyfrSb4cOykvf26A0b7+j9+jz+bFERx7w+QMjOGKkezLtezBMawhfSv70+ls/zX9nAu3P4E9OEuzc3Ax88D4G5a9s8nSGz2urbp/05sezLkAQUDBdhogvF5ht4YmODudCjavvnYUe3Cm0PnuZfb7Vz/fmT4nwpujb1oG3ygAnP47raalWw3GGRrnjZIrOI47OIE7OI7sy3UcoXFs4XHsIf2YfOcNjOMPjBPwv1aaIOAXOnQOip8z87d+/wSzdPY50Hlh5j/n0+/DEzhd9ibesCy+URmO/04bckmRROQNDkAGPoErOIkzfBh7aJJA5Cg2rwDBcWyhJ7AFjuDyTeL1TeL3ThL0TBJWdIiw5xAh75lJP+cwYc/5KeQ5TMg7OeMpKPMzS2edg3fCMz7TPQR9o/gDATwhD56xUULhI0quRLam6HTQeGs+q0xFURviCPH6tvqA3cEjOCLHGfQf4u5lyzE+sAPz+r3krD1A9n17yFu7h9Xr9nHfun2sW7uX+xU9xv3rdrP+JO1i/boYrd3FA2sfe820fu1jrF+7+zSSY1N0/9rHmKXZObgYeWD92s2svncNufdaMN63imzDSvUuB2foEFP09mgNmicyiSs88abIFzqOO3KCHtcYmpZEwuJ3k3jZjSRc9hG0S28h4bKPknDZrSRcfiva5R9Fu/zDaJffgnb5h6bRB9EuvylGsj/9u9e7f3Ps+vIfcZJjszQ7BxchD1x2Pdol70ZbcjWJi69ES0yhsceGKyyyGadDb0pGX6uMa6/1xLOfdxh/6Cje0FF6bWG0pGQW/duvuGbpw1y1dCuX3hOjZdtYkrGNhRnbmJe5jTnnpR3MyTw3zcvcoa4l1zsbLcjYhk5bWJAxS7NzcPHxwKKlO7jkd7u47Nc7eM8v7mPBZe+nrKlvGhgIKLxNgOCOHOLN0RG8kaMEQkcYtgbRktO47H8tvNu0i0tNRSw2lrDQWMZ8Uzlp5nKSssvRpJ98bpxK0XJKScgpJTFGsq/OkfPOSfpvtdxSTqUStNyDszQ7BzOCB+R9mkuyKrlyWS3X/H4X8668gfLmflyhSdyRwzGS/Tcrq+f/vfZm/8QTPoQvPE4gHGHQakdLTuWyn9+v3u6TZKkiySxv2akjwVSHZqqPUSOa6UzUMHWOuRZNUTWavKXnvBQ///zbBHnbkKmWFLNQDamm108pJnmDUQ3J6v4aSDA3nYfkRSd1aJaaaVSLZqkjQebHLNdoIMncQIppilJNDerlJOnGBv581Ei6sUlRmrGJVFOMjC2kvu007f/j45jxW5nfRhZltbHk9/mkXfVhSlv6lV/vzcrn6/39BQKEMQJhPwO2AV1D+NnWkwweZ3TNJMJ+JhB4vcemgcZJgIkDzZm2r/f6b/X5zWim104JxmYSLyKS8bye8b8V515sc/Jmn49+Py3MyWpn3j2FpFx1GwcFECSc/zZoBdP/4wIBgmgIfvrtfQoQLv/pzletlhcGDC60sF4I5m66QEB3oe9t9noXJ8+d6bk0kWg8FRCKWgZxBs+v4k8X5guxf0EAwR86RCAcOA0QmkkwT9HMeThnemCzx+LPL8HUyCxd2DmQuU00NsU0hAJSrroVHRBEQ4jTxNuiLVwQQAiEDhGcDgg/20GCuSVGum0dZ6jZ7Sy4zPLAqTyQaGwk2dBEiqGdtKUHSL3qo2cAhLfHfLhAgDChA4KtXzcZfrZdgYFmbkYzN+l0QfwHp07kLGPNzsc7gQeSDI2kGppIMLaRtOwA6e+a8YAwHgME3al4+c+2o8DA0oQWp1lAmPU1zPLAGXkgWQAhS3xRrSRmHGDOOxIQ4kAQ35rlNfIzf0VLFHsvRmJLn2uFku/j557rvP9L38X9D6ffs8zT6cf+r3x+5wFCeIygRBliYccr7tw2pRnMWECYHt6cYtZEUz2JpoaTgn4mUJgOBG8UECSvQTOdIYJxElTjIdY3Ec79M4D0aweE+PxPzX0cINT8GhtJMJ5hfk4BlrNfI36ti2GbZGwkxSCRhlaS3xEmQ3icUCTIgGNQ9yEIIGQ3T5GAQixx52J4APExnJ5MlG6qI8V8kCRzFYnmOjRzA5qlgRRjPWnGahJN1SpxSJKH4jQdHOLCr4OGAMcUyTWE5FiysR7NWE+qoYE5WU2kGloVM+gx+0aSzE06mZpJMjWRZGog2VhHsnEq6Uquk2SsJ8Fcr8ap53s0KaDS5FxDHZoxngSlJ0Bp5nok0UnLEUCT3+mUYKrXE8fknpVACdg0kmRqmUZNJMs4JMEsO36ehG2nriPzJcw9N6uBNIPcby2pWTVqLMlZDaQYxHnWQKKQXD9+n7FtirmERHOlnriVPZXUpuZ62lheFfePz7PK12iNjVnmUH9O8VyY+PbC5cS8GqzivPV6tucGhLc39HhBnIr+8DjBSJD+GCBc+ovtCgwSLc0ITRe81zNRb/W58XGdZExhOrMIfTWJZhGmWp35swUYmkgVp880MJB9AYRTxynCJYKvZ0PGt3KteVm1zDGIcNaq1S0lq5VkQzuaKUbmVmVHiiBKBmCiitRIlCZ+PRGWcrTsSrTsWiTj8uQYVcZjDKiyD3C9pYB/WFHIP6wv5pPryrha0pgt5Wr82vIWHZRigCDAkmgUEKwiMbuRpJwmErObTxNYHQziWZ0iXJKxGAeV+FauNTdLQEPuv5rLMiqVfZyY0UjC0gYSs5pIMTWTYm4g2dJ4klLFAZ1di5ZTjZZTg5ZdT2J2PcmWZlLNraSa29U22dysjiWamkgwNJNgaCMpqyNGbchxeSb6c6rXs2RjWaAXKyDEowyJxvYzaAgzFhAC9Dv0KMOSX2w9CQhJFp2x4sJ3qvBcGIR9o9eMjym+1SMiNSQZDjJnWQFXm8tZ/LvdXGIsIz2nieScRp2R1UopAqIDQtxs0NVhAQRdGEQgko1TlGKoRrPoadhzjPksztrH4swC0pcVkZZRTmpWrbqmZm5BM7Uo7USlb5uqSDaWsTijmEWZe0kzHNBBQdKgRYhkxZa0aJUCXcfnNxSxoz9I3+izDESfpXx4nH/d2UWyAqMeNHM/V5vyeU9OPtfk5DM3Yx8JS/ehZRaTYJIUaxFGWcHl/upi4FZDQnYNWk4VWpbUndSTaBG/0HQNQfZr0YxlaL/fi5ZdRIKl4FVp5wnZtbrWMw0QRHvQpM7Fko9m2U7y0g1ccfcW5i/diWaUuhS5z3qSLAISDer3CXI/hmKSMg+SbqpEy6nUQc0k2kVNLG1etCg9LTy+vdg0BAGEJEMTWgwQxKl4sGVQNRxyh2cYIMiApZYhGJkChMX/s5UEWWEsOprLCpw4A0wGqTN4/+omvrdrgBXNk2zuepoH6g/xk92DXGapQpP6h2l1BrKv1GiDPNBGkk2NJBtFva8iyVhJkqmSZKNOCaZKEsyVpJgq+dpGLw/3jrN9cJxHesf4zYE+vr62jlRLsTJXdCFrQjPUcMnKJm57oIufFoZZ2/wk2/qf5r7GI3z24R6SBFxOAoJoCzXK1Hm4xcrg6LPURF7kof5J7ut9nC9sGyJxWQ2Ll7fyT490sr7ZyY7+AAfsUVbV2/jitmZSjQUkiKkhQm2oIcFYQ6LUeeQIyJVwpaWUv3+wgzt3u/n8A70k5rwaEEQQ/+LhTr6zZ4Rf7xzizgMj/Kywm58VdOlU2MW3dneQYqkkWQm3CLj4Ayq4Im8/397ehqnCxY7+w+wYPMTKzjH+YWs378oT8BMwrSHJVM3CnDpu3tCNoS7Ko4OPs7H3KPdUBblsbTPJ2QIMlSSZaxWoxYEgvr04AaE5BggFzHmXpC4P613IZhwgRA7hi7waEMRUEHVP6OIFhEYSzHokQOzqv/hTtaWlcZJS3x+oCz1HhecETRHoGofMplEWrRD7v40kQx0ppjpVdJRiFPVb4siNpBrF3pdtJUnGChJNQmUkm0Rdr2R+bgn/WeKl3v4SDcGnqHI/To3nBJ3RFynrO8LH1unnyqqs7P9lJfz15i7W9J+gJfgytcHnqA++TI//JUrdz/N3ewaZn1dBgrmKZBHipQe57sF++lzjDAce5+cHrbzPdJDrl9fxLlMV7zHX87vqSZoDz9Pieop639P0hZ5hMPICBZ7n+GHBMFfl7EczVaEZq0nJrCLNUM7tGzr5cZGDFR1HKXW/iH3yGe4p9KKZq16lISSbqvhSSYD26MvY3M9QEn2B9tGnaB99hvbRp2kffZ6t1qdIN5YxR0yr7DpF7zbs4879rZR7T9AeeJ4mz9M0+J6lw/8S5cGX+WlFGE1AObuaS7KL+XbBIGuHDtM9Ds2hl6nxvkBj6DnWOp7ny3tsLDSUkmSsYq5BCsd0X8vFCwhNJBlbYoBQOA0QDiHFg2+nlvCmfQiSPx0HhIGYySAawumAcFItP8UL/OekKVWxAAAgAElEQVQ0GeLqfgPJYvOuqiejdJge7wsUDx3m7qIWvvlIIf9V4KDb/wcco8/wtYMeEgwdaFmy0lcpQEg2dqgVLs3YiJAAzByjCGgVCZZKEi2lpJiL0HKr+OvNjXS4juN2Psk9ZYN8f0sTP3qkngO24wSjL/JAU5AluSXKcZdgLuPS3Gqyeg/TNPESDYOH+dmeJn60q4+Ha5xER5/kMdsxPryphdTcauZa6tGWFXP7Pj+h4DG63ZPctkEcbO1o5lYWrmjhm/tDDAdepmrgML/bYeWfN/eydM8w+7pOMBh5hTrP03xp0y40Y4lS8+cbq7kst5JHe56g3fcC3d5n6PU/iTV4CFPhnxzIYu8bG/RwcixiIRrRD+rHODT6CkP2MMYuO5ubXWxu9urbphDGylEWGCtYbKxDy6kjcXk9P93eyID/KC2BI6xrsfKT7XXcuauHrRV+KoaO8/P9fQoQErPL+fSjdez1TWKNTvJQS5Qfb+7gh1s6WNPkwOY5QqHnD3xmQ6fSzi7JFJ+QXnEb9/9cfBrC2QHBO1MBIRQJMGjXfQgKELLFYTSlIVyMgCDee1H70zNqSL63hXqrH2f4aX52sJfFxi1oOXvRTAf5damLaOAwJY4n0O4VW+8AaaaDpIpTz9xBqqWWlBxR+WuZY65niUF3mClvfnY988QTv7qJzDovHv+T7OkY5XLLARKMRSSYCvn07k56Ai8z6HiBz23pQhN7OLeU/9rrp9rzElXuE/x8Wz2XZ20lIaeBm1eWUt3iwuP+Az+vH2deTqVuPtyzj0/tszI+/hyt7ie47v5uEsx9aCYZYwMf3zLMprrDfH7FATTzPhJzKllkzOcv761i68jT9I+9xOr6XrRV5bqWYC5jjuUgvy+wsbxwhIfL7VQPjKnGHVlFg2h5MUCYBgqp5kp+0j5JeOwVdrb6uNZSxhJDRYyk7r+cJaZa5mfXscBUS0JuHVet76bePkbw8POY6+18YGUhqZkFaMZCLjMf5LadbSStLlDawWJzBXc1+GgKHaWxx8F7V1erMvREQyGLTDsoa3PQE36Ru2ujzDWXkWoWf0LcyahvZwHh7H6JC6YhTAcEcSrqHmQdEOJgINs36gC88L/THVMShkvPquOLW7x0OiIUhI5zw0MH0fKEActJNNTw/lW1NDg9WD0uPrB3iNTMfVxmKuZvNvdx++ZePr5hgCRTEVpeKemWUrTMOt7/YDO3bengI9sHSc3t4IqHeygdkO5ST/HVPf0qZCgrt2aqY4mlhG29L+Jz/4GMKh+auQxteSGb60NY/c+ytiOElpWPZi5GE00guxnzgQH8kUl2DR/jE/dWsSC7lPdt7CKjMYrj0GE63QH+5eAgX95p5/r1/aQa60nKqODSleLrkGiFXKdXbdOy6vl96xG6J56npCeCtlI0hHJSDRUkSGQitwotp4KP3VtBs/85PKFJMooH0XIFEAQg5bnqlaPppnr+p+t5PKNPsbbRj2YamtbHoUlpUWlmHTwFQNOy67ljj5+h0cPsch7jow+3oGVUkpjVjJYh15VsV4nk1Cjz5MbcSrYOP0ln4AQbKzrQLAMk5XaRmCtp8vX895ZqekMvkm97ho+vFb9PxUUPCJJPkSAmg0miDLrJUNosPoRDzGgNYTimIcwYQIitHGIL/25vFEfoFVb1THJVXqEufKYKkjMqmGMuZd+gD5vfzw/Kx0kzVrJkRRU/bwlTd+Ql9g6+zCc2daLl7meBZT8fzKlie8sY3sOvsLPrONdnN3Lb1hGGxWYPPsEH729QTjQRyiRTDQuNxfxbcxhf6A9s7JggIbeSeTn7OTh4hCH/09xTZkUzFLHAXMV8YwVadin/tL4Cq2ec1sAxvrqplCtXHuBe1ws4I3/EGX0ar2+M9sghuqNPcWdpiPlZ4qXX8wD0jFGJCIhTUIR6L79r9jI0/gJ7+sdV96o5xnLSjLXMNTSxcFkryRmd/OWKJhoDzykNIbNwQLfpTwOERYYGsjv+gH30CdbVDqIZ89HyDqDlFk05QLPF91BNgqWGhdkNmEtH6Y++TEbn41ydW6HASDOUo2XF9vMqSMupUCHWW1bWsm34aTojz5F7oA4ts0NpYClZ5SrM+T7DNmq8z9Ia+iPf3dKu/CqS9xF3BuuRk9NDxX9O01VPsFKAYO4gJaNI+RBmPiCE/ZwJEMShGNcQLvwq/+YeZIKpiblqdWtnd3Mf9uATLG8c40pTqQrlJVhqSTfVkGwq5ZE2J45gGFPzCRZmH2RBRhF/vbad7IHnsEWP82izncQ8CclVkLGzif7Q01R6nuMrD7ahZZRyR0mUYOQJGn2TXHJfFykSjsyuISGniiRTIR/c3o5t4nnqho6SurKO682FVLuO0x18gp8X9aKZS9Rqqroumer46L1F9DkOK6fgHVvaWGSs5F+rj7Gn9xDWsRF6gi7WdY+ypv0YXzwQItkkUYMGNIMkHUkkQWL0TUqrucZSyEO9EUYmTpBbOYyWd5BkU7W6dy27STlNE0zVfGRFGXXhF7FHJrjrYB9abuyaxgZVEi3JRnMtNfzW+gJ9wSfZ2XuERxqdlA8dprZ7gjU1Y/zNA21oEuI0iRZSxWV5XZR3ROkKPsu/lDpZmLmZDz9cwc/y+7nzkQY+dZ90tSplgYQyV9RxXXYZe4aexuZ7mkeKO9CMfSQa+tEye9GMXVxlKWev7QT9wRfJ2j+MjD/NVEe6uZ50sx42FlPx/N273hxvvR5eTzQ1k2hqVeanDggfo6zFOsM1hBkICJIFmC6qWm471a0D2EOHMTQd4tKMKpJz2ki0SPJNjQq5PdTsxhEaZX3nCRbnCTNXkmKp41N7rQyEJhjxPs63twxw4/L9VA0+S3f4RaX+X56lmxL/XhxmbPQYla5RUlf3k2Ks0QEht4ZEYwkf2NbD8OgJ+uzHmLummfdk7afGe4yO4FF+sk+YpVyZYXpeQh03rTygAMERfI7/3mljnqGDxSu7+G5BP8HwGB2uw/zVzk4WrGwnQdRtY8zejwOCOHdFFc/exx33V9Hpe5KewDF+srdV70OYU6cESQQqRZKALLV8cHU5JaMvMhid4PfFf2qGIwlE8fTn2PYSQx33971Cv++P7A+8QpH9WRrdL9ETfA7H+Cu0uZ7kZ5urSTbtUiHEa9f00jLoxBV8hjX7ndxb46cs9AIdE3+g79AztAaP8atKK+9a2aQckKmGUtZ2HMfqfYGS3gmuXyWZl01ouU3Ms9Txy33ddPrG6QuOs6LFg5ZVFQODGCBI0tJFCgiJlk7SM4uZ8653ACBILcPQGUyGi1lDUGnBAgjL26nvGMQaPMLS5sMsWVpJWm4nKZZGBQiymq2td+KKTvBI9wkuUc1LxUNez4KVFSxt8jMQeYk9HVFWSaRi9CXuHznOR9dXk2QsUskz/1YcYmzsCcqtEdLW9ClAkJh9Qm49CYZybtg6xHDkOEPux5l7bwvXZuZT6ztKq3+CH++UxKMq5aSNA8L1efvodRzGHnySX+13MEfszxXt/F3+EJHQ47Tan+TaR7pJyuvSQ4Omat1/YxBzpY4UaYWWW8NHVx9gR5NTmTLbhqJcl/sYmrlUJR3JqiqAkCpanqWWm9ZUUqQAYYylRT16P8jTGqbMMTby2W0+coef56M7nFxlruLatR18ec8g20YmcIw9Tt2wn0+tK1aayjXr+mizOnFE/bRHX2CT8ynubAzytfwhTD0n6Ag8T2fgaX5VMKSEXnJB7ihwUhv9I4Pjf2R9nY8fbKjiG/eXsLzczj7Hc/QHJrGOHcFY1Y/2+9IZAQhJplaSzDogpF/1MUpbrXrHJNVt+RCut6mV2gVzKgYjAgh6+fOSX2w76VS8mAFBmTKWZrQV7VR0DWPzHcPUcpRLM2tItLSQnB0DBGMJa2pdeMYO82DLEyzJLlGx8xRLM3PM1Vy3tpGC4cN0+o6rsGLF6NN8eU87c7IO6M6we8r5YZGf8OgTVFijLFk/RIrURYj2kSvdcqq4ZaeTkfBRum1HSFndxNWZBdT5DtMZOMS/7hTBrCHNojshReW/YXm+0hB6g5P8vLCXdEsDyXmNfD3fSiD4BK2OI7x/Yw/pOa16inMcELLk/+pIs7Sjra7BfHCQHs8YneEn+NftDaRk7VROR0kkU4CQ00yauVnd74fWVFEWfZGRyBjLBBCy62L1CVKco+dipBkamGeoYbGpkIScDtKyOlQp/KK8eu480EuP5yhWz3H+bWubAoR3rRdA8NEeDbO5f4IvbqjluuxirrBUKvU/u/4og75nKO53Ky1HfADvzi3hN1VuesdeZiD6Ct2hF2n3PUWr7wR3HgxROTKJ78jzWMp60Va2zxhASDZ3MiejGAGEkjggRHQwmHGAEFBhR724ackvts8IQFDqrqibeY08UG/D636ClW1HudJQpezttOxmvaDIWM6qBj++8aMsrznOYnMxSRJmNDeRmikpslU80Oqhd+xJfBPPsMU+wTUr8kkyV5JgEh9CHd86EMQZOUatI8oHHraRbqoiUVKZc1tJNtVze+E4rvBR6vsn0VbUc8myEmoch+iLHOU/H2tVKcTzTa2oJqfmGv5yxT76nUfoCBzmR7ubSM+uJCG7in/c68IvGoIzwo0bupljFqGtJlkyD8VcMDSpAqPk5Q18dGM9XbZjWMPHWd3k5P05+SRlF6lwqmSapklxV3Yzc81ST1DLR1ZVUBV5EWdkgmWF3Wg5taRnNagirbSsBtINjcw1NLJANBBJcc7rZo6pBy23jXRzLV9bX0nd4CSe8AsYiq2qC/Wla7toHB6lM3yM/y3s491Ld3O5qYrLLW0kGGr4zAYb7Y4nGPa5SVvVzlxDA3OXFXLlPbv47sYuzNV+NjRPsrLay3cfruDGe4oosx1neOIZfrtfcjBEw6mPkURYJP8kXimqF3G9Hnv/rThXfAiiIQggzH0nAII3Ms7MAwTJb69HW67n0N95IEDQ8RQP9x3nmpwalaw0z9KiC1F2Lfd3H8IbPcz/FI0y31hIQm41iRIlMNdy424ruwZGqXQfUWZHvvMpPvxwLUlZEs9vQ8tt5rNbfbT5onQGx/jcow7mGiSkWYeW10lKVh13tPyBYOQ4e5vH0PJqWZBRQ3lflIHoCX5dOkJqZgNLjM0kGTpVkdJX7ytgxP84TfYTfP1BCd+Vq999ZV+IcOgobc4QN2zsJUUco5l1zMmsVxmWWk4radmtXP5QFTv7pTnu8+xuHeWvVkilYZFK+U0WIMhtVb4DLaeNxZZW5hpr+UheCTXhF/FEDrOssFPlBaQa9OpNqdwUmpfVwKWZ9aRJ5qRFwox1JFrqWGgo5h+W76XWeoSh4DPkVYyoqEF6TgPF7aP4gs+QUW3lKtMB5htrWbS0iaSMWj58fy/trsdxBnxcsqaHS7IaucRQTVpmGQm5HaQbi7kso0Ili2mZB/li9kF6x56iNjTJ1zZLEViHqn+QGogkSyOJcm8XKSCk/l8BhLjZ8Fag6xu/ZgOJAgh5smqW8u09LvpdT7PNeoz3rZfy5Aq0vCYVKpt7XyMHRx7H45/k0495SM4sZa6q9mtkzpo27ul9ipHoM6ypslLc6WXw0Mv8tDnEZeJ8/H0R2rIqPviQgybbYYZDk3x4awcJmfJymVa0vFbSs8r5edcfCE88xcpaP1p2FalZdRzoOoI18BQr6tykZpaqgiPN3I2WW8iPN5XRGznBfvfz/PXaepKW16CtrOBLe62MR4/T4grx/o2DJEnRk5RBqySqGpIy65n7YBcN/cfp9J2gYugZblvVwKVZlVyaVU2amhOpPGzRHa4CILkdJK5o5iNrKqkNv0QofJR7ijpV2bWstnopdi2JxlpVpi1mg2QgapZmFmbWKxMk2VzI59YWUel6nGHfc6zbb1W1EknGGg40RvFPPo+h2cW1EuEw1pCwVOggn97cSbdrHHcojLZGxlVHkkUcrFWk5HSTktfAkuxOtBVimtRx994B7EeeZZ89wG1r9qEt71RVk1I5KQVbkr58MQPC/HeKhuCPBE72QzjdZLgYAUGq+kRVT5DCnYwS3vdQB93DAboDT/CVXS0kZxWQnCNlzwV8r2AEZ+BJ6sJR5q5uR8uqYY6ljkvM5XzngIte1/MMDQf40Lpa/nFLMwPeJ6jwneDf9vdwTU4RiXftZUFeJ480hvAGDmPqG2dOXh3zDM3My6jlmrUtNLtfZiJ4nC9skzBtNdrKTn6bb2co9BIVtif59DpJ0hEha2LOvQd5tCNC9+hxsprHuHZFLYlS/JNXxt/uG2Q0+gRNrlHev9FJmoQWJTU7q1IV/fzFpn62Dz6jXr3XNjLO1esrmJdTQlqOlD/H+ifkNZCaVc2CjDrSczq4PLuNBdl13LqynIbRlwgFD5NZ0oWWqzso9dRgSdcu58b7e/jWRhfvktLxe6pIyKwgIbeIa5aX8vsKB63ep+h0PcmP1kviUYUym/59Sz+eyBH228b5yt5B0qWIyVhBkqGI/9gvzt7j1Dgm0DK6lMmjGfaTnrefOeaDzM0oRLNUkJxZxXvzGsgf9tI08RT/XW0jxXIQbU23yr+QHIxZQDh7hmK8hfsFcSqKyTDTAEHSV5NMelpxgqGMpFXVNBYFGJ14hY3Op/mrjV1cs7qdD93fztaBx3GNvUJma4gEi3jhi0nJruAja9vZMvwHmiM+DPur0fJquMRSwCPtLoaCL6lsuc9vqkfL3KBWr+/u7WHIM8Fg4AX+rmCMxesGeM+KNrIrJrEFXqGu1c6VqwpUjoK2soOPWErYPyie9hfJrZvg1o29XLm+ly8UDNPlfJGh4FG+uaNXFSCl5Eq8voJP5tvwh05QZYvy/g1e5kqfPkMdqaYKPvRQBztsL9IQfpnS4DFy+8e5a+8wa4u95JWG+E1pmF8eDPKlnUPMNRzkiswK/nKDnR/tHuMne6P87z4bDZEX8YeOsa0zzGcLg9yeH+HmR62qWEnqMH7bcojugT+SWzPKzY/2M399LddubODXezw0Wp/HHniOnT1jLJAsR3MZCYZSFS609TkYjjxNbtcxbt3Uy6X3NvDRrb2ssz1Df+QFLDVRtKXNiCP3pofruXtggv8u83Djuhouv7eRzz0yxAM1h7H6nqLA/Ryf3CB5BMUqNVqFVy1S1q2XQZ8s2Vamw9uXb3A2bTbuQ0izdDFdQ3AE5CXMM9Cp6I2M4Y/4T9EQUlWt+1STjYsrbVmYQGcOWTWkiUmqqYpFOe2stB+jPvQUnf6nqBoeozMUpmfiWR7qPcEVa9vRjAXqvZTX5JSzuvEQg65nKOg/xNVratGkUebSSm6/r579g6P0RB9nQ4uDm7J26+m9f1rlTfVj9HqeY9B7jF7nGD2ucRzjz9HuOs71W7pUgwzpoyCx9fSMIv5uVz9bIi/QMv4SjXYn7UOP02OHXcFX+F7TCS5b04K8Mk+SnGR7y74hleSzxzPOB9b1kpbdpsDo3StqyJYipuDTDE0cwu/7IxH/S0RDLxAcfQHf+LO4x54k/PgrrC/pINFSxLzMg1hK7Niir+AKv4wn+BI+3/P4fM+epPYQmFqeYaG5kEU5hfxzlY99nhepDb5Ia/ApypyTtNqP0SZVi+OvkGd/ns/sGmae+BhyaknOruVSQy1/u7GTB/snaAk9QeeIj/r6JqyuEbqjh1k3cJRrH+5By2jnUkMTvyj2U+V6huHQ49gCcn03jc4w9ZHnedT3Ap/dPUhyVqleeCUJPyd9Bn9+4T8TKEhTl1RTG3PMPSxcVkj6VR+ltM2GAoTQhAo5zqgow0lAsA+pFmpLfrGTmQIIatUQhlHtxpp576Y2ft0yynbnCxz0vcyu3uPc3XKMy7Y4SDf1KRs5IaeJ6x/o5ye1R7ir/Sif3NJAUq4k6ZShGXpIzKzhM3tt/Kzncf6j+Qif2OQgPauDReYWUpfX8G9FPvZ5X6bI/QqPOV5heffT/OM+GwulYEqSfXIbSchuRMtsJDG3hZu3j7C05yg7HE+y0w+PDr7At+onSVlRrXosJErEwiQt3qq4fscA2V1P8O/NARYvryUxpx3N0sai5S18q3yczK5Jfj04ibnnWYy9z7Ks63EMHccxth7D2HIUU+cJvr2jVy/cym3ns9tauaslSEbLEbLansLc9dwpZGo6wbeKg8zNK0WzHGDe8kI+sbufX7Qe4lH7SxT7XqHUA/fb4D/an+Kq9W0kiTYT6/Yk+Q3zDbUk5RzkQ1t6uav9MI8FX6Bs7HnyB4+wrHmCeZv7SM/uVpl84gO4PK+aL+wbxjjyODXeV6gNv8xez/MY24/yl9v7STVXqFwLeRuSZACKj0O6WJ1JGC+GY0nGZuYY21lo7mPJUgGED1LaNoLdP4ozNIYrMq4orta/ldsLZDKIhhBgYKYCgnI01ZGgknZqWbK8gevubeWmtR28d3UDS1a0kWboINEkJbUNpFjamJfdzuK8ZhYtryE1r4QEKa7JlRqIHjRpmmmuVWm886UnY0azah0mXm5pYjLPXME19zZy3doWrr2vlctyapmbWU5KVhVJ2fUkZNerpCjptSBt1JLzWrhkdQvXr2vh/Q+2cs1K6VNwkLkS3lMdjfRGJtLMZM7yOq7MrmF+dokq0dbfntVJQlYLC3NauSS3nvkrGliS28Di3FoWWaQMuZTFmeVcZqzlkj+FUC81FJMsKd0WyaWoYrG5miXGWhab6llsjlMDiy0NXGGsYb68+FYcgUKmalXrcWlONdffW8cta+v40LpmrlnTxMIV0lJPMg5bdeeezLuxnuQsHZCTpNArr5H3rGnmL+5r4r2rG7k0p560ZdLXsp0kszgOW1UTl1RzNYvyqnnf2gbet76Da+5rYcnySlLkDeOSbm6WDEvpVSGgoLdV0ztaXXxagoxxnqGTxaZ+Ll1aQPrVN74zAKF/JgLCtPZawjhqxZBEHHMryZZ2vbmGqVnvfShNPNWboiW2Laq6nk6r+gJIglPOfqQ+IjFb70mo95OMv6xG71koDjAtu0LvJSBtwcQb/6cCH+mjID4NaQ8WpyRp3iKvw7O0qIxBVYdgLFdRES2rjLRM8epLf0YBhPhW2q1J0ZTu8RfHabLkysvYVcZhoy6QlhY1zgTpFylNSqRvo7QkyyonLatIf7WYuZW5WfLaMondSwesVrTsOMmYmhUQpBvqmZ+pN1EV0zBVwo2WOuZkVzA3+yBpllKSTOUkWmpJlMiKuh+p7tOrGRMNepMaaTaq/1eD6kAleSKppmbmZrYyJ6uFdEOs12Q87VrqMaRdmjiIpeZiRSPJ8jZvs4Q9Y70bpU+mUW8+G2+CezFoBdPHkGJsZb6hmyXGIS5bWkDa1TdR2jaM3R89TUOQ17m9ta90u2Aagi8SoM8xs0wG1VVZVqmT1BwrtRXPfBuaZNkJk0q/P8W8onZWkqJSf8UpKSt+rI+g7OdIfwMpua0j0SgdiBtUVqDeWaiEZDEpsmMk3YZUfYGEBKWLsRQI1auejdKAVHIcpLdhgsTOLU26IEmfRQkLmup0EMiq1lfl+Ooca3mmmowapShJVtYaUgw1JKmOzZLxWK8iFbojSwRRxq/3Y1ShSWMFydLD0NTA/Kx65mbqPQkF3JIkLyP+vk5pe2YWAaxlTlY9CzMkD0GfJ9WX0VSnWsglmUtJtuj3niTFXOr/JXoj5dIxQIgJbMqfKiWlSat0ZtZfXNLEfGMrc82tCnDmZTSo8Ujug24CNKg8B3lFfboAgEW2Un+id5dOUXMgyWU64FzcgNDDEuMIl99TSJoyGYaw+yM4Q6PTTIb4ex7PHy14o2bF/2FAEGGe9mYpKfSJF+qIcJ9GEjoV51SiMKyU0wrziomhBEqESn4v2xhAiJBJDkCcTn4XO0dsaEMNmqzK0k5dXVvv1Bzv8CPFVeLjEMdnco50r54q200wNqJJvN8o4BDXDuT3el6Anhugj1fPQajVcxEU+OgAJEI/5XATtV1yFmIkdvfJSlXRjET1jr+vc/pWnxf9Wq+eN7m+3ta+Su8QLQAqc23Rq2DjQqq3s9dbyysNRyozTY2q5iLZJAlOTcyJkbSqk2NSiyKFV3GSzs1p8htpfCO9LaXPpbS1u8gBIdnYyjxDD4uNwzFAuJnStllAeJUQni6UF/zzKYAgLcXP/nYpAQQhYVZZweLvGJAVbQoI4vux9yfEwUC2pwGCWglFtY8BjLpurHV7HBD0XoB6NESAQRfeuNBJU85zA0IcHE4Cgnj246ScbKJtnJ2mA8LUy3ung4HsCyDEx3SmrQCC9DUUcIyDwRQgyJzqoBBPcNIBV81r7M1X8bmPC74qSpPnMQ0M4t+pxreq0a2AgU5ToKNrCuce75nu4a09Jj6EOcYuFpqHdEC4ehYQzsNUb9EDOR0Q4p9ProxTvRzizWKV4MYYTZkEIlBqxRMmPwNJtEBIvpsGCsLw8aYd8e3prb5enVUnwhufC1G59deSx1fXOACcvv3zAoKeHajuRTSck3Okz21c2E+/d72RScy3cNoLXUQ7mAKAU/dPF/4zfZ6aw/hc/nm3EmVIN3Yw39LH5UvzSbtaogwzXkPwzzAfwukmg6Qp62+bSoi9YEbs5jhN9YeUvnzi7JsCiykmn8bwkiYbB4M4IMSFQXUB1k0BlQcRy6I7XShEiOI0tZLHmff1AMLZtYCp6776nNM1hHibtFO38fGcaxu7tgLEmGkWA7YpgZ0ydXRAE0fmqbb/a/08JfC6VnX676a+P9eY3/rvJOohYxNNJ9XcRnp2D5cv3UuaijLMYECQVtGe0DhdIw6Vh3DJLx9lgfkgqZZqUi31aptilmaYtSSrDrh6s0t58CpUZZTqwtMpFsaa5jDTz71Ax8WGV3ayCF3Mnp0GAHEgeGNbPU12urBPv4783/TPJ/djufZxEBCnXXxs8a0wkAqPiv/iNZP4GU6j1/Db0wXpTJ+VcCnTRcyXs9BJreb8Qna20OCZ/vv0YxeLoL/ecTcaSsIAACAASURBVEgkaI4KR5dzeeZjJF/1V5S0SpRhFFdYz0GQXIQ36ih8Pb+7IE5FT/gwntAROodcChAW/PdDzLHsJ8kiBTmVJGaXkZRTTpJ0B5aceXnBiHrxSSWaSZJ5ivW38yjvdoneXkuOv1VkLkczV6BJRqDysMedixJluBAUMxNO0RDOf91TAES0BnG8nRxP/P2YcV/Cq1f0c632s99dvPOVYqli/vJS5q4oYK5pG9q7pR+CaAgzFBD8o8fwho/ROeRBS05l3n/dxxLTfuZKH0BLJXPNpcy1lDNP9i3S0qqadHOV6gmQJs08DSUxOkiqIU6lSLust47KSDWWk2oqJdVUTppZp3RzORcrpZkkh0HAbJbeSXOQai5mvjmfeabdLF72KElXfVy9ym3GAoI3cgxP+Bjdw34FCIv+aw2X/nob83+zhzm/yWfeb/Yw/zd7mf+bfOb/9gDzf1fEgruKWXT3QRbfU8ySpTFaVsySZQdjVMqSZW8llbBkWRFLlh1gybL9LMnIv/hp2X4WLtvHwmX5s/QOmoMlyx7j0t9v5dLfbuTK/13L3Ktu5WCLaAjyDgypZRCz4a1NSIqbFRfAZJjEETqMM3SEHqsfLSEJ7ZZvoH3o22g3fx/tQz9Eu/kHaLf8EO2WH6Hd8mO0m/8F7eYfoX3wn9FuvAPtxu9N0U3fQ7vp+7Hj8t1bRPIfN30X7aZ/RLvpWzOHbvgm2iy9s+bgpm+i3fxNtA9/E+2mv0NLWkxJq9QyjOEWQFCgMGMA4RBDkUmGQxP02n1oiclon/wON3z667zn9i/z7tu/rLbXfkbfvuf2r/Cez3xV0btv/yqz9Prm4JrPfp1ZemfNweWf/Q4Lbv8B6Z//AXM+908kpi+mssOGKzCGOziKSwqcwjPIqWgLH8IaGqff6UNLTuHK/1zKHGMBidKgQhyLlhK1n2wpI8VcqV6vJa/Ykhbn0lsw3VQxS69xDuaYK7nYKM1cySy98TlINctLfotIMu/nkmWPkHb1h6nptOP2j+ENjOIJjuIOjc2cKIMrLKrNKP123al4yc/NeisuqfwzDaDafpnlnYVC3ToZ5cUavWim/j8fmWVsM4z+nPN1+n8b+9HeTjr9/98Rn3tVn8z0zBbVR/PKX25n7rs/Q12HHa9/DF9A+k2O4lFawltvNlwAH8IhhV4y4H57AC1lLlf+cg1LsgtJz2lBusCkSW9/adltkWq+RpUCLBlqemz99FTYt+ezZm7Rq+6k8m4mUewdiqcmB+nvVZw9NjPnQV4Fn5bVzKKsOq64K5/U6z5HXYcVrz8aA4QxvGExG0RLeGtNhwsCCJ7wON7IRAwQ5nH1b9exxHSQtOwWUuUN0ObYW6AtUqCjA8HrTd6YPf/8ST2zczQz50jK3lNN0uaujvSsx1j4ntup6bTi9kfxBkfxhsYQGdPBYAYBQp/SEAQQ1p4EhPQYIEgG2izDzs7BLA+8mgckY1c6SIlPLS1zNwvf82mqO624/FHlP/Cc1AzioHARlz+rtOWYhjAFCJKYpGsI6aIdSA39LCDMAuIsD5yRB14NCJ+iqsuKIxDFJf0QlHYg/oMZAgheAYTwBH2OIFrKPK76bQwQLC3MAsKrV4TZVXJ2TqbzwJkAoTIGCPEGKe7ojAOEQ/z/7J13fFvXefcvB7g1vOOVxnF2YztuRtM0b5LmbeO0ifs2dZqkTZudxpZsJ3ES2xIJgAA4tIcly9uyrU2R4gIHAIJ7770HOEVqb8mSne+b51xcEqIp22kcW1L1x/M5F/ce3Htwcc7vPOd5nvN76jqGFCDc8JvVSkOIuAIIc84IgZ3hyvEVcLgMAWEvvb5JPyBEcsMjK68sGd4j9ThwB+B5YGOQvxjle9S+89p0pQ1qwrjsAKFnaIK+4UnqO31ophlAiLyiIbxnGsKcwGCAgZTvwGAMfMZcx+/EM/433OOyB4TrH1lxmWoIwi04Q9rx5zKUyjPezkCQ50tdox2BbZumDxPuRblfIBi8Q4Ag91XPFEZnJTNteTvt/+PryBZmnWvxj//u23un78V9L19A6BINIYrrf32JAYIxWGTgSD4CYxDNGpjCoyh/niE686900tmdba6990Ydnenojd+Z4XM0AEHRkl+gLfJ9qacCvPzP12M8hLUpX6dtSypEWyZs0DJQhatQOBVnnnN+G4QbUXgahTfSP9DjJX26cFb4B6EiPg3gYxDmKGnHeYBgXPcHCV0AfNT3/L/h/HYY70mYlYTERj4Lc7L+3s/ndTDqSnYm49go/b9n+h7G+YuvvKwAodsnkYoT9MqSoXsYzRTDgocSWWDLwOSQSEXJB/Amg+ANf+S79YcZHXeGGDVaWISkAzlyVcp1ycKsBkmCzq4sNOOS/0AXjxpkMtCMGdrolPo5N0GSK2FaZFDqLE16ZKSQjmYTZJOcBZLgRNohg0CS0Erb9DLUWkyQVR+okjZeS8hDc7gU63Co5IZQSUj0gal4Cx0ugs0v85/Pedla0IKrvIcXCrv5x42SDj4fLb6CmKRONGsdmq1MH0gqgYz8dmGwEup4oYj3KOALFb4Ii+R9EKZmF5o1myBrup+TwQ+OBiAobUUYoPOIFor5hFzFLaE5stASRJwqMWuQNYcwa74CKAEpyToVKRTywuqUIFTx8h8IiU6qyjolICaZpfX37iLI7iLI5sIUL+3KJ1rem2TqTi5AS6xAS2gk2NFAqLVcgYr8P4Fi/E8XS/nmgDBC1/Ao3SPichRPw583fPkdiVRUoDA8SV3vCJppAVH3xzPfDwiSnPPiBQTp5DJrShq2fELs+dyQKFmO87lng5dvv1jF1zfU8JEVXuZJUpTzAMHooFLqNOp6p5PjwGvGsYdQax5hsZnclpjHl9fnc++mTL65KYPPrs7khqQc5gk7cYKXCEnW4vAS5nBjcuQR48jm7vVuvr/Jwzc2FvCF1TncusxLmF2yGUn+TOF4FG3BS4gjl5/uqaRh6BRdYyep7T6Iu/8Y/5nSqOjqNHshtyTk881NDXznuVLue9HF/92Qxe0rsohwOAmzCpNUls4mJaAgEldAuNXFQlsON8fv4bb4HSywZ6okM0pbshYTIglR4gtVvWttOXzMnMLt9p181JrKx61pfDx+tyo/Zk7nxkdTibJkE27J18HQ5uQmSzYfTs7mK0+4+OdNHr71dBGfWZHDgkQBTslKnaf+o2BbHkH2XIIk47Mth/kJBdy1zM03nizkJxsq+JtNXt6XkE2k1U24rUxvv7G0eVON5N2aiN74nLcPCH++gKR3kA/ByE47SW3vKFroAiJ+YSHGnkGoo4RQh05UerGg8Uw7/DOipC1XlG75XO3I5BvPVrKufIqc/nMUjZ0ltfVVVpeM88UnKwhJEEpxd4DIgNEBQQ0MmYkUd6HwPkoSlQCRLETWPP7miWJs3iHS+o5ROHIKz8BhNtf5+EVqDbcnlajsRqZEL6YEL6bEPG5Y5eTe3TWsbxrD3XUA19DrpLQfZpG7nzvW1xJpcxMsPJXxAhCFXL2mhNT2SQaHz/B82TCLXqnnhylNfHRVFpGJTv52cy0Wby97es+qpLaFY/tJ7/BhLmjnc5sKCI9PIdQslHY508uH6+wu7lrt4r4tVcQW9vNUw2G+9lIDQcn5Kk+FLBkEEIQNOcqSw99truHJiimeaTrIUw0HeLZhP8817OW5hkmeqT+IuWQ/UeZ0TJZcRacX4cjmBy8WsqJigIyeExT1v0pJ36s8V7aX+1KamLfCRbA9jyBbvgIDLSGHEGsG19ic/CClh2dLD+Ed+D3dfa+TMXKO5Mpx7nuliVskyY1aaswsgYzl2Ew/eOMAfbevXZ6AMDJFtV9DCP+FhWh7BiEJki7s4gaEYJsLmXWCbbl88/lSNjceonDkNXa3TvJMVR/b2w7RPnqaLT2H+MgzFZhEVVUi6dc9KiOS6nQCBIq41E2QZFSy5KFZcmfEVszNayvYWDlG59g5dnbu57navWyrHadu5DjVvoP865Y+1fEFoETtDrOm8P3cNtImTlM2eYLNjT6eqRkjr3k/+WMnWVk1wa0rZbaUdGYFmKwFfPSFdmp9B2jqOsK9z9UT9TvJ2uQh5PEdfOaVSlI6pqgfPcrO7qO83D5CascANX3jlPcfZlW5jxuX7STcnEVoXDYhljKuW17B/fmDPN82RZ7vIGW+wzR3n+Q3ad1oSVl6ngprMab4UkWNHmXJ4juZjTQOvUaj7wyevsN4Bg5QMLAX98Ak+QOHearlEGFxuwmyZBOR4OavXmikpH+C+qkTZLfu4+WyUdIajtA4cJaMoVN8I7sPk11fIijNIDmXqywZ/Cxrgnrfa3T1nCWr9RSepqMUdB6hdugsWxqO8+UnKhX1vWTR0kUHhnd7wL/V864AwntmNwicDYT5WQa1rMclSWgOGytG8Q6eY3P7Yb64LhXt16u4ZuVONte00dI3THLR4BsAQdbAyuBl8RBs8RJs8ShA0MwGGOSgWSQfo4cv7W6jceIorXV7+ci6AoKXpnCzbRfxhR1U9ZxgbdsZrl5XqdLFBVmc3PG0l1cGTlDYf5B17kausj1DyJKt/PDZKryNPjwDvdyT0aDSw6n19dI8PvVSH737R6jvnuCTa4qIjC0l3FHP1fEefuzqo669jxcKqviYIwNt6WZuefxFbCl1lHYfp3joVf7jZcnZ6Obqx1zMi/Xy/sRCNlRNUNQ/RvPgXnoHjjHRe4xlu1vQlum/XTIPmeLLFCCEW7O4L7+D1pFzOIt7+O1zefzH6t3cu+wlvrliK/+0bDdfSM4kxJKCyezkZruH31UepXH0ENuaxvj7TQVE/G4b18WmsmZnM7U9p9jUdYLrnm5hvqSkEzuEOYW/frYZ59Dvae07zHZ3Jx9w7GLB0i38c+IWHNntLM7o4tq4XWhJkqxFT/4SaCx9q0H6bl6/bAGhRjQEWTL8t0XRsIuGIPkMFJPxBazN7+aLn3mW5BD0EG1xEyVp4B35fObpBpq7jpLTd447NpehJQr7cy7arzP5yjP11PWeprHnAAvWughdmk9oXBnBFsn47EZb5uEGSx43xHmIiPMSahajmBi4JJGrixCzk5BVuWQ2H6J3BH7pniTc6k92anNzzboSnhl+jbbu1/nZ9na0JEkCm8/v8rqoGHiV7c2n1bpYsidpdiemhBwsrlZa977G+tp9/OUaMTRmosWm8qmUBvq6T1PSPs6H1+dgsjvRxEgY6yQyycOdL9QwP0nySWYTFptNpMPNDUvSWVe/n7rJ4zxX0cUCeyERsQVKuwmz53LD+kJu2ejlH54vJH/kVdp9B3gks9qvIciAMwChkEhLJj8pGGCk+yypngHdy2HeoyeotQpI5us5LaU0O/n000U09x2hfPAAn91aS4jUlTbb96CtyeGp+l46+s7yi9RJfRljz+bO5GyerT1KTd85nskZISoxS72TkKRcgpOrCEmUPJR5hMZnY4p3BgDCjIdoxlsROEm8N8eXJSB0j0xR23NpAUKMxU2MAIItj59u7aez9yhbm47y4SckyaqkFXcTklDLtcsKKeg4QuvQXu7aM6AyFF/nKOS/9ozyROMRfpU1wEeT9yjWIC2hmBBLOt9PbyGxeoRf5fTxwbh8bn+ymLKOo3T0neHvnm8gOL6UoMRyld4syprD4y3n6BrYz3NF/WjJktS1kBXFA9SNnCXRO4r22G6CJRu1PUcxJv10awVNI8fJ6D3F/9lUyLXLcnikYJhdtVO0Dk7g6/Oxo6KVlMIu7tvWRKhF6O5lKZJLqFjxbblEW3IJSy4gxpzF0sIBmvefZHttL9ckFBEVJ3kcdEOesvrb87hjZS5O3zk6hg7wu4xqBZriBdEBoQRTfAHRtmwW1R6kZuwsG5ydaEky8MUeIYZByTQtCXH86d9i87hvexXNA/txDZ3kxifL0Cw5yoOgaPItWfw8u4P2oXM8U3QMzSa2jTT+6aky3J3naOg5xw+ea0aSyEbaCrjOXEZ4QpHK7xiullACCgIIepZsw3UpA/AKIMxtoHxnvAzDexFAqPMDQuQloCGojMt2t3JhiZsxKWeSVt8x1lfs5eZEWZO7iVB+91pCHG62VPtoHxnlP4uPEr7MTYRjD995pZLWwbO09h3nNzvKibblotlKuW9TDnntPip9h4hNq+PaR3fz99vbaOk9QlHnfm55WlLJl2NylBEihq8le/ha9hhdA+Nk1YwQuqKU66wedjZMUeM7wW+y2tDistVGMfGGmJY6uXedi6qBA5T2n+Pbz1VzY2Iem0dep6nnNE0DPkYGRijzTVDef4AH3EOK5l4GZYhNF6GuExo70UTmL91DQtkoDZOneKqkg4WOImWPEJeePE9Z+R0u7ljlImfwLD2DB3hMACEhk9mAMM+eTlzPYbwTJ1mRW8rfbs7nx7uq+e6OOj67qZzrE9xEiHdBPDuxOfzzlmq6Bo8pQHjfxtIAQBBtwsnXtzdT1n+KkvZ9aI4ctLhUfrGjnYZeaOo+x7w1ZZgse/jI0p3cmpjN1ctyCY4TDUPcuNJ+Y7mglwIGVwBhbjAQT8P/bkBQHgPREHJ40XOQ6vFjJJeO8D5HntICTNZCwuLKMNnyeKaoj+axSWxF48xXcQpF3LCyhl+5p6gf7iWrZR93rpAMyR62FfTgmXiN5W0n+PAquX8q30rtpm3kELnto1y72qVSzIdZiwmXlOrxuXx6Rze9Q1PUNu8nZk0hH7E4cXedoqTvKD/ZWYUWl6nUe8kDGfWok/8bn0bpwBSt/WdZ/GITC+Pz+dwr3VhcBxnsm6C+6zD/VjLOXXt6ueW5BoJFXZd4B/Hh213ESKYsex5hlhw+neRhW9sJSn3HeCSjWdkC9IEjmoQAgi4fX55LVv85+gYPEJtejebIUNqBaAiSsDQ03sPVtmyS285Q1jdKc89JnIP76PWdo2b8HNk9J3g8vZPPLXdhSkxHM2fx1Rerae8/q5YMn95SPbNkSMhAW5XDT9NaqRk8TNVAv8pJEW3eQ2zWIJ0Dv6ej+xwfX13O79JbyG44Qm7Ta2x0j/GdTU3cEuskXDwljsrpQLI3gsFcQWXv/rJB2nU+H8IXmNntGBiHcOGBbLgN/9TynQMEIw4hdCGXhoYg6c49ylWmJXh4oWGEurHD2Av7uU4SoUgac6uHsDgJmMllU+EATWP7SK48zMJE0QTEFZbLrWvzSek5wcDwa6zIreWejTtp7p1iZ/9ZvvpyFyFiU4gv57vp/XSOHiS3xcc1SWKD8OhZpJW/PIf3P1lE7/A+mrsOEbmhiI/YMijpOUVVz2F+urUMLS6L8AQ3YZIe3uLkU47tVPfto3n4LA/saifEmkuIo5hv7Gija3iKovYp7thUSZgEEqmZUoDJ78935BNpT1WZtbRHX+TRlGZKBs6S2n2Cv16boyel9cdS6LOsAGQen0jKwdn/GoPDR1m6pwZNyHOtEl8hdgSxy7iYn5DPz8oP45w4y7KqU3zL4+PHOeOsrBrC07tfeTPWlvUyP24zWmwBH1xbiLP7OLX9hzC7e/lw4k7CLZuJiH+Rf95ZT0rbcTrHTjHQvw9Nfr8lk8SivbQOnKWp7xjbqg7j8r3OztbXcPe8TokPvB0HsTg7uNkugCC2GmOJoAd86ZGXxvG7DwAztiz92ZcdIHQNSyzCJPUqDuFSAAR/KK8tnzAJDXa4eKG2i6axSRJKhrnOH64bbM0nzJyj4gmeKhqifnQSa9V+FiTn+GfNPExJmfxr/jBlfWco6Bjjhbp+GibO8Ouq01yzXEhlSwm2l/LdtH5afftwtw1zbYKHUHM+JrW2dREWn8dtm8roHJqioWs/wevc3GbZTXnvKep6DnP/Nom4y8XkkFyZMlt7+FRSGjW9EzSNnOKnOyXqMAstsYR7UjrpGNlHYccUn3yySmWnClKhzAIGugFVjKjh9iyCljn52qrd5NaOUDJ4hsfcPm4S46QjnyAVBSggoi8bxJ7wiUQnOf2vMzR8jMcFEGwZyu0aqlyuurtVPAe3rPLy+RdauGmFBFZlErE0k7uXZ/J0+TB1w6dxdh3iy+uz0JZ6iYjP5Ac7GqkfOETVwElerhlkbUU3K6sGeLntGE81TlLr20+3b1xFIsb8IbLTUeijeegY9X17WdtwlH95qZmPJ+XxVxtcPFM+QtvIcdIaJ/jSeo8ehj6dZFbS4b33APC/DhDEyxAjnUW8DI5iPT/hRfZHBCkOuzzdTmDL44XSFlrGx1lZvY/rZCaN10N4TWLksrp4pmSI+pG9/Lp8jJhkJ0EOCTeWQZZF1Do3L9QdoNl3lMaxM+zpPcVdz7eiSci2ZJROcPHt1H4afVMUdo1zY3IpYeY8TLKmF1eaJY9PviwMOVOUtYyjrczjxqXbKOo8TkPPYRZvr1SuwFChrpdZz17E55ZnUtc/Tv3QUX68vUINzqCEEv4xpWtuQEhwqRlWwE8GvGgUNy/PYltxJ717T/JS4z6++FQlEZZsghw5hEjkptIo5DfmqxDhTyTmkNv/Oj7fDCCEWl3KaCfvKNicT3hcLgvEqyLRjglZhNvEmOkkZslufvRyNYX9r1I+eIrfZTQRFCcZnrP5iz8sPRKc9aTWjlDQvZ+S4eOkdx/h8T0t3Le9jOK+KTqGRtGSPSywZRKb10697yBVnUN8+qlSFljzCI7LJsyWyTfWZlLSdYD64ZM8nFaP9li2HhKuMm/7c3ja/EbNi8L9LbERl9mSYbaGIIBwsQcmCSCY4vMIVxmL83gyt5a28Qk2tB7leplJ1aadfELNkpU6nxerREOY4CdFQ0QmSq4JGVQye2ZjWl/Ixqr9NHVN0dd/mKcbD3DT6lK0ZaUEiUU/MYt/3NFB9eAExf1T3Ly8irC4fLVuDLG4CTbn8sWsMToGDpJbM4S2LI9rH99GTuN+mvoO89AuMeB5lSZhkuWMvZAvr81WcQE1A0f40dYKguIzCXGU8I1dcwGC3w0qbRFgcOQQHp/HI2lNNA0dwtMzzg+2V3C1w60s/LK/QvJnKEBIkO9K8FY+n0zKI2/gdYZHTrJU4h8kz4ZV3oPsXxBAyCMyNofrHssmxJypri805xAsOSnN6XxxXSEZXaeoGThGwp4GtDjRQHKJsWTwPssOvrIynW+uSeObq1L4yvI0bnx0C/+Q2kZJ7wma23RAiLFm8HB6PTVDB6lsHyZS5bMoIsrs4aql+cx75EV21U/Qv/c0G72taI+JG7OIIAFmEbueNHf2LP1efr7sAeFijlSU/Qb6TjsvIfESeiwbhwpYnl5H++hBNnUf4noJ2hE1U3b+mWWtmceWxmFa9+/n24VjhDsyCZHZ2iIJYlP5u/QOijuPUNcxQnP/FFVDB/lSahNRK/OJUDH/aXzllRbKRvZRNXGMD65rUDYEk4T8SnRjXDb/WLyP7oETpFb0qziEBY9vI6N+L22+4/w6tQ4tsZhIZZ0X110e96zfQ+vQQap6z/AfmxvUgBSvxb07O+bQEGQwlOk7IBOdaEmp/DxrgNbBw9TsO8vDzmaud+whKKmIYPnd9izCbDkqCEvW7QIiAg53JufjGfw9I2OnictqUpuVBBAkKEoAQSI0Q+NyCIvLIMSSocdGOHK4MS6HoNh0/mpNDqkd+5SqH79TPApOFa9xldwjsYBwCddWmcKzFGgF2yp4JO8gBcMnSfPuRUsuUvEFP01tonzwBOXtU3wo0cUN8V7llbne4iTEmsf6oh6GJo7zrLMG7dFdVwBBvIBvU/5ko6KuHZxvQ7iYAWFmJpBIRVFZ9f0Hf/FMAS09g3h6D3L380UEJxUQbJF07E4+/HwpeSPjVI+Pc+OmMkLiXETFFRIdn8/7nimkpG2KqvHTfGNbHUtT2ukbGSWl7hD3PFlHhEQsJqWrOAFPy36aJ47xs5IBTJYMYszFxJhLuT7RxctdR+geOszDuyVSsUSp26tcHrr3HeD52jFuSfCgJYorrZLwhFzW5TTQM7KPJ2v38UFxx4m2klTI32aO0Dl+lIKO/fzlk1VqQ1W4VTYdlRKaUEbUCieLdjZSMXSU6rFTfLewnajE7cpjEJyg+/M12YcS7+TquFy1gUmzlasYhruXOfEOvkbf8CGWOOtVYFK4VeqKn99D8NIMFfR01YpytPgiQuIalA1FkyQ9sdl8f3MFZe2Haes9zS+eKtXjDSQnhtlDiFlU/hwkECosIZ/QRBfa0824mo7SNHiWb23rJtxarwyx9zzhJrdlkrq2Mf7phQJMCRnMN8tSJY/bbelsbx+lfHwvj2Z6VfyG0vbs8jwxMF58O28vKw3hUgcE4ROQP2TeylxyK7ro7DnBw65+5pl3olnS0JansTy9nd7RcXY296GZC7jaUkqEOYf3rXPzWOEIvr4jPFszzLxkJx9dmUd5915qfIexFfu4NdmFluRBW5KO3TVGa+8BdrccZKFDNJVKQuPL+D+pg+wZ/j3NzYe47YUigh8XNT2H+zak4e0bo2poP799zqvcdEHWZj68yUV6Yzuto4d4OKuXa2Jld6LYCAq5J3WUzvHjFLQf5i83Vejre1s5YQlV3LSigh9lt1PWc5rW4cMk1jRx+6Ysrl2Zyfw1OVy9Jo/bVhRwnV3UfCcLrdlEJzgxrXQTviyTv1mTQVHPcboGJkhyVrPQnkZIwjausmQTYs9FS9zD11JbeLloH1/Z4ERLzPYnwcnnlnU5LCtqo35okuzmIT67RnYxivZRzKeX1XDPrm5uWOkm2LoDLXkH89aksNjZS8fgCbJbBvnAylyuWlKFaWkx19oyWVIySn3P62wpaOMv1ogW4FF2md++7KWmfwJXzzjfeakQzZyte0HspYTYSvwa4cVlWLwCCBeFMUfXEAQQRFMIdWTx76kNuLtPkdN5mLVlXfz3Li/x3n7qeg7RNXqGr+xpR7MIh0A18yxp/NsLbqr6X6Oy7xBf396AZikheFkd39tdReHQPsqHDvDwy25us2UQ9ms3Nz9ZCFdlrwAAIABJREFUS2XzUUrGf8/T5UPE7WkmLqWenOb99Az/ntjMQbTlBSx43MOCuF3csMLNo7l9tEy9SnG3j99sd7JkZyVbq3qo6zvB5t5X+Zunaog0C2+DaA+FfG3XKO0jx/F2HNMBQZYkjgKuTsrh55ndFA4epbNviv6uE5T1DFPQNUVR51HK249Q3nKI/KZTxKWNKI0haFkpj7xUS1rNCIXVByirP0Tj0Ek6Ro/i7hxna+skztoJ4r0HmL88h/ctz8ZaMUn78Gm8nQdIdrWxNKUSR1Yjzr7TFPWeomjkVX7ralPLEs3mYZ69mN+WHKC67/fsqtzL0pQKljireaa+h/6hIxSPnOLre1qUNjZvaRGm2CKC4nL4xKZKXh44R2vnYXaUNPHvz6Tz2IsNtHf2ULP/KEuqBrl2eR6auH2tsjW8ZBoQgt+EdGZGg3z3QOOyBwRTwG5H2csgImv39+JlX/iZ5wNCsM1JsC2LH+b2kNF7hJrBKZqGRunu30dR+2v8wNOE9ngqEUvFa1LOl1dWklp3iML+MeJye4i0ZBEk6mhyETFJVSzz9FLTPkhVxwT/sLyWeRKE5CjhM1vKyakZpmlokqbBfTT176dl8AjPF/Zw62oPUfHFRJsLiTHnE+LI47a1ZTxecIiartdp8B2kZeAIFf372TL0Oh/atdfv6RAyEy/C6PTF3WNUdU/ibNrPh9YXKxVb1tUfTHKztupVqtp8FPWMUzR4kPqOw7R3jVPfO0V13xRVffup7jvLqrRxPUw4uYj4HaM0DEDz0Ks09h+nqf8ITb6DNPgO0+E7SePI66woPM4C2eiUlMvtz1XzcP1xPL7fM95znN6x03RP7CV3+DWe7Xqdb+WNE75a4j9ymW/xEmP18o2UfopqhxgYPU2P7yS9I6foGj1O6cAA92Y3YlpdxUKl6ks8gZcYs5ur7C6ufb6Kp5qOKcBuHTtDU/8YVT2HFCjdtq4UzVFKREKZDgiKr0HXEK4AwoVtCn8WG8KlAgjCMKTTjhUqtqAIi4d5tnxuX13Mv+RNsrjqNN9JH+XOJxuJFOu+rYBIs5cgawHXLC/k409V8IlnSrlxWQGyjVqs/+INCHYUceuqIu5aX8yd60q4RnJcWsUgJrNULh9eU8R/pI+yuOQkP/Ie5rNP13KryqDswWQrJsxaRJhFAqcKVD7M61aUcfezjfy46jQ/rTrJl7Z28v6V5QQJg5JFWJiEvUncpIVctbKCTz1VxV8+WU2kCmIqUu0Nt7r54Loa7t5Yzl2bKrjzqWru3ljH3RuquWtjDXc+Wa3krk21fGBlKVpSHlqSl79YU8MdT1Rx57py7lpbzt3rK/jUE+XcubaEu9aWcsf6Mm5bW0Wo2DgkWMuax/wENx9/vom/Txvmp8WneKDqBPekjfGR9bVE292E2j2EO7xE2AoxWTxEW13c8WQF96WN8kjJKSX/tmeMD6/wEBHvJMgmNhCJ6NSZj4RRyiT2H6uLW5ML+GbmOA9UnOWhwuPc/Wwt1zncRMZ7CbcVE+EoVe9F+Bp0A7LQ5F1ck9ObawijdA1LTkcjL8OFB/PbNRy+Wb0rgDCddFYGoXQWr6IPE0NXUKyHkFiZzcTwKOe9hJt13oEQe4EiTAkWejXl4xYuQ7HQixQSJHsU7AICoiGVIGHQAj4qMMZRSKS5kNBHcwn6nWznlUFtgJNY+sWu4e+0Er8hFGHChxjnRlsqXAsFAdRpXsWWpDMmyfc8agCp56t2+weAnxNAiFREm9A9LVJf8m0aInk35X4iHoLlN/jZmPTvyHlpn5yX9vp/s1CvicdGAZOfCk6YqGRLeJyXoKUugmKFcUqiP/UIUBnUIsLjIHwSsvEp1OIlIq5AiURyanGy70A0uSL1e4UuLkgkMD+o2aXeX0ism4ilfoo6PzgKw5UsF3QmKwHGiyv+wNBe3woQ9IxNlzAghF0iS4YZDcHfyQIGoXQ66YDh8UUqtl86pQxmmekjrUWqNCkSUn0AGeGxipfQ34mF89BkKyXMppOHKECQZwjdmQxWGeyiVahBP6v0n1duUnm2+NLVYBSbxxwiVn0luqYg2kLgMi1I1tEWmZELFRWc3nYBFn2zjwCFtEmAQjYsiUs01CJSiJC9zoiEKOsDWzqygJW8RzVrq3v4dzQmyq7GEoJtOpNSmFLfSwlzCOWbATr+dyfAMvsd+OMFFGdkAGgbYKDepf+9qHcY+B6N/1FIaC8ybcAAgcDysgOEzlmhy4Fux4vXhqDP2IEdzDjWZ0F9NhJaMBE5p9n04wg/IEhn1TuyxCr4B5aQcVhkthP6LrlerETuoeoHdtDAQRDQiVVn8Xd2+V6YtMGmc1MKP6W8UwEFo51Syr2NtqqZUbQdP/ioNgbcX58x/fH9EncwHesvJKuiDemz6UxpzLKBpc4jqWsTOiDoM75oDfq7kjTnSmRAW8RLIlwIsrTQyWTVduhp7Ur/jrxj+R+M32YAofHfBJZSVz3L+J0Bv9EYcNOa1hzXjDrvdXlZAYKsRzoEEEYmaegRTsWFXOqAYHQ6YyZWnU7U/4BBKgNQ6slg0+MZZDAJh4CI2BlkJi1Ss6zJog9gkwzaAIrzuTqirsrr9OryXHlmmNgVAsRol9HO2aVxD7m/DH6ZJS9oSHszUJoeRH5Kc2XY86vdxvdk8BuD2iHagQ4I8lujLCWECSgYKr7M4kbdwNL/HQMMpge6urdfe5tDS5iu52+n8bvnKud61xfLuSuAMN3R3lvjzuyBNPvz2+0wgR1Q8SrKet2vfhuDVwaIAQjKDebPqWBc/2PL2W0N/Px22/0GNd0Y5FIa/1HguTc7NuoHlIHv4Lz2GTO7f8BPz/IB351+/v+Cc1cA4SL5kwM76VzH53VKv1HxvHP+32F0/LlKWZcbYGCUfwogzNXOuc7N1c5369zs9zBX+2afe7fadjE+57IDBIlW7B5+8yXD7E4y1+d38s8KNKhd6L6zO2Ww5JAIEON64PeNc0ap1u6KD0C3aMtgFwkc/HIsdoDZYtR5O6WyQfiNicaz36oMbLdxbLz3t6ORGHX/qHKOd2E8683aa7TvTynfbjv/lGf8Ob57WQKCgEK9olCb24bwdv4s3dgVaLj68xyrtsxlqRdjnV8MY6jRmS9UhtrOXwrMBgRjsM8GA/XZJvTl+vf10oswIs0lymAniVj8FnrdQ6Jb+I1j3cA3Y5CT3zn7nRr/g26AnDEGyv0vJIZXYXY5w2Y8Q1Mmdd5w3u99MAyQc5bidp1OeGMkvpmrFAPuzJIm8PcZv+2tysDvv9fH0n6VU8MmOTFchMduZ/6tgYxJo1xybsdO3wQdvgnqJJVb6DzmLbLrfAj2Ykx2sX7rP1r3ZevWeEHFN4rhI5dy9vXAaxe+rrvPxIV24Q4uHV/cbmHiRrQXqXRzknJOlxIiVNbqEiJsukgW67lE6oVLXSWlRNgvLJH2UuYS/Tv6PcLt0p5ClXBFkq7MFnXNUUSYcB46Cgm1z4jJXoguRXop3gi/QVF3Gc64C+XzGwFI9uTLlvC3lnDpvLYCIlQnLiBMcUvo3wuL168ZdaQMs+sBVqY/pfSDoQGIBqjI5/Nlxsg704fOr2OAyHlgIIZgBaDS7+RYYj9kx+sbZQa4dBB78zpzgdr556QfSoTqPGsZV8XtIurWu8mrbKW9f4SOgRHFBdHpM4KTLoHAJAGDdgEESfYaGslVix3ExO9RKcaM2U4G6MwfNHuw65/FJ64PaD1YRU+Aoh/PXNMHe+A1OTaAQB/s+iwbJtmMrG+U8Hg9Si5S/gh7EVH2El0cpUQ5Sol2lBJjLyXaXkKMHCspI8ZxvsxLKCPGkMRyYv6HEi27EMVPL9mdpM2WAiSPo0iYRaSAsD9s0Y60ehWhi7RfxCT1AsSYwSVhi8mqx/AbLkjlCjVmb4s8R5YwwrEgMjOojcEtpTA6hUgItWxrtrjUZzkXHu+ZFqOecT1srutvA2TeGoj0mAkjbsLoS4FgECrxEAIQc/S1wHpGkJUa9Ia2YdGBQO5r1J3xGhneI70MrCPHc9Wbq33GfQNLaW+ErYh58WUstFZzg3k34e//BPmVrbT2jdDW56O130f7oGgKf14wkPu/I5GKAghtQ+PUdA6hhYZx1QN2YuLT1IudAYQ3DvI3DGrpyDKzGx13upRoQbk2I7LdNlACr8k9BHVlgMmgn0ui5E9IKD1P5ieW8adITGIZs2Xem9xTrkUnlhKdoAOStFMGeqSlgAizZ0YsHiKtBURbdJFjER0sDNCYeR86IAhY6IFIJouARyCACEhKajkDLAVwPHNKqNmFiMnixiR14iWcuGBahO5cvivX1T0CrgXW+2OOjbYEfkfRqvuXUwL6Rt9RE4FfS1B9zQAESeHml9mTiQEYKsGuP7GuSm4rE4uAit2vZUy7kecGBB18LgwIgQP/QscSgh2pAKGUq+Krud6cQvj7P0ZeZQstvcO09PmUXFKA0D48QZtvnJoOPyDcH/8GQHjjIJ9jrXlBQNB59SV1miEzXPuzrin1VdTZuYHAAAfRDOYa/AsSy1j4LsoCRynz7SVKokQNl9nX6ibM7JqWcItQwnuI8otRRx+kMlBnSwHhFpFCvxifZ0qhmNelCAm0mkvk+2Fm77TIZ6kXGV88LfLZeI5xj8Drf+yxcY/ZpWGDmT1hGCAQuLyaXUf6nlFPBqASsWuovI+6dmr0z8D7GOdml3Ivo57ca/Z1+WwAgLGsMz4bpXFe7hNlL2S+rYirbBVcZ9lF+Ps/jKuyOQAQhmkflCXDJaIhtA+P0eobo7JjQGkI19xv+x8Dwvkv10iwMVMKIOiEHDPnBBwMoBDVU1TgtwsIswf/VQllXP0uy0I/KERL9mRZAohmZBFWZl2mZ3y1FNCvz64jdY16Ohi4ESC5kAionCfWAj9AGEDhVW0Jk2WLX+S+AiIGqEoZIcsXBT4z3599fQZ8Zu4dWCfweK66cs5Y3swe7GqgBxpiZcDPoWWeX08PHddtBRKpabBo6baVMLseCGYYiI0ycBkgA1rsY2KLMa5LGVhHBr8x8A0gmF3qgOBlvs2rAOEG8w7C33877vIm2vpGaB0YpW1wnI6hP28aeANs/uQlg9xIdmN1+kapa+1FCzFx1b8/SMTi5wh9cAehi9P8spvQxbswPbiDsAe36/LQVn8pn3e+URZvI0zkoe1vFOOaUc6qE/7QDiKU7CLioV1EPjhLHtpN9K/SiflVJjG/yibmlznM+2XeW4jUeSt5q3sY12fuE/Owk5iHsolatIfI+9OIuD+ViF/snpH7dxPxQKpf0oh4QCSVCDkfKP46kfenEnl/CpEP7CTyge1+2UbkA1unJWrRNqIW7QiQnUQt2nWeRD6wi8hf7NDlfrmXv87i3UQZskies2vmmtzDuCZlwD319gTcR11L0esvSjmv7sz35PyMRCzaScSiHdMSuXgn0YvSiFmcpsqoRalELkoh4oGdRDywXYm8A3W/xWnIdTmOXLSNiEWvBMhWIhZtJerBXdMSuWi7OifndfHXX7yFyAe3E/ngDiIXX7hOxINbiXxoG1JGLN4yp8j18MVbifnVTuY/shXTTx0EXfsx8iua6BgYo21wjI7BCbp8f37t4B2xIchNeoZHGBgapUsYhbQgtOgPYYq4hdDIDxAa9ReERt1MaNT7CI26Xokp6lpm5HpMUW+U0KhrCJSZ+vp3A6/J8cz169T9jGfNlO8jJGpGQqNvwhRzC6aYm3WJvhnTtNyIKXq2BF5/p49v0p8XJW2X33cVpsiFMxK1kLCoq88TVSdqIaa3lPmYot4oYeqecl+Rq867t/EsvR0LMEX6ZbreNYRFGXK13t7z2mhck3Km3YFtnTlv1J2pN3Nt5pwpSp4jIu9lPmGR8wiLjCEscoH/N8y0w6hjmq4j9Yzfqpf6O4nBFBUgct/p9yH/wXy/zDu/XpR8lnfqf/9GvcB7Tdcx3r18Zy5ZoPp5SNRNBEffjpQmTSOnvFFpB51D4/T4JukZnro0lgwCCH2+cQaGxmlv+0N2nRATN/14KaZFq9EWP4m2+Cl/uQlt0dNoi55DW/wi2qJXAmQr2qJZ8sAWtAdenpHz6r8yc96o478etHgLwQ9uJUjkoW1oD2/R5Zdb0ALlV1sJ/s2OadF+u40/Tbag/daQl9F+O5cY16Xcqj/vN1vRHtmK9uttaL/U2yztP//9vELw4q2E+EX9vsVb9DqLX0F7g7zkP7cVbbHcaxvaou1+2Ym2aCfa4pQA2Yn24ByyeAfaA9tmRO7x4E6CHto1Lep7Us9/bc7rxr2n26Dfx3im3M84nqtU1x/egfbwDoIWbydo0VaCp2UbofJeHtqm/98PbUF7cIv/d8/Uk3dnenCb6hvBi+V9zOpv/vsZ9VTdRVsIUv3q/LrBi7cT8tAOQh/arp6t15H+PFNP6gQ/qNeTUn2Wc7Plwe2YFm0h9OfPEfyzDWg/cRB81YcubUDoH5picHAvLe39yoYQ9cskQs07CLKmEySZg6yZBFmzCJIcB5Y8gs0ugsXNo0SYj0WET08INvwi9Sy5MyLc+4ESeE0dS32/mPMIjcsnNDYXk6T0MmSpk0jJghybQ2RcDlHmXCLNTqKsTiKs2dMi2Y7CJDuyZA+WY4uTMEmMOi3CuJyvizWfKHsBUQ63X/KJcojknidhVqdKmhJmzUWJxX8Paz7hIiqnQQ5hsU6VuzF0SRYiJpGlTsLmEKOOUUq9kFgnoXFOQpTkEBKXS0hcXoC4FEmsZKiWZDFzSy6hZl2CY50oicshxJyLySKSd55I3ZC4HPWdua4Z95LvSz2jrpwPrD9dTz3LuJ9RR29rcGwewUvzdVmiH4ctlfeWq787aUecnA+otzSP0KW5mFQpx/mEGPdQ9WbqS78Rg25onJvgWP9zlroINiRWznsIiXMrt3CoZPaavkdgPalToCRYeB1ivRcUk3BAWD1ExucTtmQbUTd/7tIGhF5RaXyTNHYMKkCIuT+R0HihMhfefdnuKjkCPf5ttudHms0Eh8h5Q8TQI2QXgSLfD5TAa3IceE3fcajiE6welZJNcgcEWuPFXy4iyVJM8TMSNutzSHw+IfEuRdmuskHHexSHgO7K0n3jeoRfgcptqAyewkI8S/R7yH3cfpH76CLuU3HpBbbvf3oc6H2R1GqS9+F88RAixkrl0p1xVQa6cI17yDsLtgh46yKfjWuBpZyXZwWem+tYtUfa9BZ1jXrn30Nvq/IMTE8mBYRYxADrVm5PiYXQv+MhWMhZ/PX0OrqBVp98pH9IwJFOehNYyi5VPU5hhhRHMSzJtvUA0YOYpI5BqiP3Or+OfBZCF6HzfzMJEjYn4XxMKCHs0d1E3fyxSxsQJGy5fXiKen8cwoIfJ2KS5BzyMqZlJtx0BgQudE6A4fx9+n/c57lA5/zosJlos/PPT/uuxXVkDbwmf658fmM48My5wPpG5JtRP/DarOMAn7nx/CvlTBzBO/kujP9dn3wu1P/e7fOSG6QULaGU8N+kEXXTLZc+ILQNT1HXpcchRP8wSWX00eKFn7/UL8KHL3Jx0ljNBVIy0Oc6f+XclffyjvYBlSyoBE3C0h9JJfLGm6cBoWPwEjQqimGxY3iKxk59yWD68bLLAhDe0T/9CrhcAdcL9QFZUliEcu4yAQTJ/Nw5PElzZx9aaDiRP1yByZrLjIZgaAeXloZwBRCuaALvTh84HxAClwyXpIbQMTxJ+8gkjX5AiP7BFUB4dzrSlQF7ebznyxQQmq4AwhW1+EJq8ZXzF+4bl9uSQTSENiFZ7dKXDDFXNIQL//mXwMCY8ZroHpI/9yz8zhtvDe+W4eG5yDWpy8moKC7H2YAw77IDBMMF+j/vWO98p/+ftMVw5xrf1Tf2zB7wM4xD+k5AfZuw1J3LnWvca67y7XmU5Hl6G4z3LM/xk49MXzPqSKlfn93umc8zgKB+i8zAc94n8J7v5bG4HSXjdzGmWW7HS86GcHkAgk6brna/ScYim6Rmk1gBCaqSgCc3QSpIau4B9HY6W3C8JGSVe0nH0weXMBdJtiiVMWquDisZkvw793TyE6Exl23jMlhc/sAtfZDO8BVKVqUSghIr0OyS31ByI+iBUirdm//ZM4Fc/sHlD6qRQBuhbNfFT07jj5PQs1cVqXwT4RbhJDB+z8xgkoAfiTaVnA5CPy+/d4axSbYcG1qHMegNQpMZAh39HkaWJ3mO/F55f2KoNoLQJLBIDwxS2afiJdV7CZqabYsJsuoiuTHOS+FmBA/N9b7fq3OSc8NeSuiyciIeTyPq5k9Oux07ldtx6tLZy3ApA4J0NF10bgbZgy+Zl4Jl0Mk2a5WvMVd1xhDpkPJZdRqZcQzPiT9ZyJtQiot2EByfrSIm1Uxgy1eznBCYRMV5iZZ0Z9JR5d7SoY17S+5D2cotUZU2N2FyPcFNuNrH7yTIKsFfkgdBUrFJDgdJH+dFkbLYvVy/opwbE73ckpDPNQkuFVgl28MlR2WQiiKVCFIBPnkPktmpiGCLbOc1tvTqe/0l/6KInnymlFBLKfNUVmX3NN28oVVIxGOECm8uJTJOZj4BvGLFmRBhncnRqDkKlZstxC55J4qIEEo7g7DFz+AULlutLV6kDLNlEWLPJMier9LIB9klylPApEglgwm2SlbuCpWdO8hSSrCllBBLGXJeACFQVEThezX453iuEPuaEsuIWlVLVFwqkbf+HbkVTWqno9AT9g7vo/dS2dx0qQOChPAaPAILY8sJttWhJVQR4ihTg1EyQmt2J5ojF006ozFYp8u3BgQZ6LJPPsxahWYtR0tw6lx9sR40EZXHUDIbSYirzHL+jE+SzMThRnPkoyXkqUSymsOFDAbNmo1myfZnQiohWCWSlf33Bdyc4OTHzh5e6DjFzs6zJFYd4wvPNymNRzgQNLskppX7uvVclDZ9NhaqNkW5Ns2crANlmMGrYJbclpI8tRyTDDpr6RsAQeLy5y3xEL60FM1cSJDZTUicEK2UEG4pJcJaoujbNEex0l4kQ7OkuhMiFcW1oECgQLFGCXNUtFmkUJXyPwUJ8DpEi5O9JJLuPUfPjWkWjaFUBwRziQKtUEs5wdbK88BgWluYY2DqYD+j7bxbn4XYN0yo+FbVEmkWQPjqHICw79LY7fjWgGBEKxoz38WynpNZUQcDg0QkNK6Ba5Oa+MymSr6zs5n7M3r5/q5WvvhUJeGyN8OcpQ/WaTCQ36Rnbzov6ckcnS1MzWB1KvHpZ1dnc9+2Jn6UPcC3Utr5/Iu13JzoIkaWK6IhSPo3ezFaQgGhifncsMrLF5+t5yeZI8Tu7OWeXZ3ErKsk3FFAkEUyPwsoyfcKmJdQTPyeSprGjtAxfILGvhPktx3lR1sbCLHko5lL+OiaVr67q4efOQf5Uc4gX9vSzMfXlTLPLJu+ZOOSn0reKgxLboJkU5BsFrPlMn+NmzufqeamhEKCJNN1ALmIvl4vZF5SNXc+28zdTxfxV+ur+PiGBj6xoY2Prm/jQ+uaVEZp7dEMtGQvwWuqufOJbu7a2MynNtbzqQ113PVEHXesq9XLDfXc8UQrn1jXycKEGoJtZWiJHrRkJxFr8rg3pZf/8vj4rmuMe1KGuGtTO9fZSok2FxMaK7kpBRQubg3hfxEgVM4RnHRxAIKsh/VNRTqrUITZpXYdPrBngLy6cdp699M5doKW/lfJajvOd3d1cL3M1DJ7KyOVqMPGphX/JhllI5B1tb6u12cYOS5QKc5k9v7qs3VsazpEffsoPUP7qR+coGB4gudru7kmMVtRb2k2WfvLDJrPbesLeNjZSU3bUUYHzzE0dIra7oM8VXGE256pV2nV1UYdUcHtBdy0uoqq5k6qxk9g9Y7yxScK+cjqEq5eVULYykL+LXuStMbjdPceY3D4MH2jh2jonmBj0z7++pUOIh9PxxQnG6J0IteYBC/XrfTyyc2VLHJ1s6d5itL+Q/xkVx1acs40Q5DBFGSKd/OVlEFcw69S2XEMT/8kNb17qRsYobpvmLLuEV6o7GfBb19UrFofW1fOzo7XKBg5S4nvCGVDB6kYOEBl/0HK+ycp6ZugpPcIhT2nmLehhhCrlxsTPHxvZwcpncdpHhhmcHCE3sEJGoYmearvdf51az+3CnOW7EKcDVhzgPW7pQlc6DmBgBB+eWsIFysgiHYgzMFuQmwuosw5aLYcFr3iprLnEDk9p7EWT/KdlG5iPUPk9pyms2+Ke1Mr0ex5BMXnEGrJIcySTZg5k4i4LExmJ+FxsqRwKVVWbBGSxzDIJmv+XIKs9Xxycynujimae6d4ouwQD6WMstQ5yu6OfTQf2EdyZifR1j1o9nL13QV/SI4aX+SjZuwQJV0DxDp9/L/MEZ6tGaOzZx+bmyf4xJNibEtVtgXJgvyF7SP0D+ylduAgH17lVM/WbGksSNzJz/O68fWdoLLlMMvLjvLD/CmW5HaQ13yI1uHTZNQP8/VlqWiJaQoQYixePppczgtl++nuOUNP3yGahoXKaxhLRhlaslsxDhu0YAIKIZYU7iusoGbvFF2Dx1jXdpwdjcPsbBxne/1etjYdYomrn+DHnsNk2clHVhWyvukYLzQfY1vTOCmNY6Q2jLOzcYKUjkNU9h2ib/Qwrq59aImpaA4n/7C5jOz+47S2HWFb5QQ/y27hgex2tpQcpGHsCFVDr/KL7c1Ex2aq3z9DyydLN335NrNZ7t1fIswGhiuAcFGgtHgS8tEceUSZs4lKyMXddoCa/rM8UjLGfPsutIR0tKQ0flg0xoTvELmVnWhJ5WqdH2EuJMIiBrp8guPT0GyZiq9BNA2xM4iaKttuZfu0lpCFZinnt65GWnv3sql2nAUrBTxyCVvh4cvpjZT7jlPaPMXnnxAruqy/3fz3pkLKe/aTPzjO97bloi3PRYst4KNPlpDfPkTd6Ag/yukhRlToJLE35PGFHe30Dh2nduA479uYR/ByF1r7uoF2AAAgAElEQVRSEWHLyvhS6ggb605yX0oPmnU3mjkdLXkXn3+5irTeM/T6TpG4vRotIVPZVeS3XR2fx6/do2xo3M+LDaPkdk7QMbIXW3qFsqsECX+FAlbZUiwMzWn8oKiXtuGz7CjbS/SaQiLXVhG9poqoVdWEr6jGlCy2lCK0pTloCUVErajmptU13LyqiptW1XDTqlpuXlHGpzcUktU8TtXoSb6c4UNzSPr5Qm5ZVcz3cgf5r+wurolNJ2xJDqFLcohaXU5J6yT1Q68SXzjCgvg9BMfnBmzL1t2oAlxXAGFuSrY/mVPxwjYEmbkuVg1BZgXpXLrBLig+l89vaqChZwJ3/6t85ukyghw5utHNksX7X2qmrGec6n4ft77oU+vw+fFePp7s4bOJ2XzSkU6UQ4yP+QRZxGrv5mP2fD5ry+ET9lwiE/K4ek0N25p99A3v41/S27k6URKxVBCyrJJr1haxoesMvcMn+WVqi962PxC4rPC20TJxjCfrhohalo4W60aLdRGelENCbjW9e8fY0HCM21eWYkrK5zp7Jj9LbaSx/xgtvce49+VCPrMqlxuSiwmKcxO1vIwPJXuItKcTIR6KhHyizFnEJLpJKt2Lb/gMeyomWLg8X9Hea7ZcQqy5LEz0ck1SHl9cm0P+0GnaRg5gT61Gc2QpEBBAEAmyuomIS+c35eO0D/2eJ0sn0FY4VSIbSSIzHc+gMj+XoIk9wFGBlljpT/8uHp4iRUxydWIBS4oGqB4+zNqKYUwrxJgonh6hjnexILGA6OQiguPyCV7iISyuBO1xN0UNo9QMnWZ57X6ucuxRoDvD9WBwHVxcgBAsGb79RsXLeMkgM+DFDAjirhP3mw4KP9raR+fQQTa3HeeDK92Ey1LCIixOeQSvLiOlaYK6gYP8U8pewmxerltWwK+LJ9hdP8VLFQf53DpZ87uVZX1+vBNzbi+7Ww6xvnYfVyWk81fPNuDtmaB5dB8feK6caKswJhUTLBZ2u5ufuw/Q7TvCxqJBgpI9hJiz2NwwSO3ESX7r7kFblq9o2KOFYCTBxU82l9A5spf0/tN8/qlKrl2Vx2P1h/H2n6Rh6DiDQyfZ3XeQlI7jfHtnP5FmN8EJRUQL4Ystixirk4UW0Y4yWOhwklDoY2DkDFlVk8SsEq1HPBm5BAkjkPJ8FHLnsnzcw6/RPHIE++5aNHsGml9DEEDQrG5iYveQWDtF69BrJGV1YLJtJTLBTUSCxELk6SKamV2f7UPEgOoQcBAGY3nvBUTZvXzu5WaKfJPs8h3i00970ZILCHEIwYxk5NLdwsp1aXWhSd4IARy7h4LOvVSPncVROcl8axqhVtEQDMr/i3PJ8PYA4RLhVLywhnDxA4Ks80Nkrb+8mORsH92jJ0iqmOSmZMmD4CYqzkWouLaSC3mmbJT24TP8uuAY8xLzCFm6iy89W8JLLYfp9r2OPbtLUaaJi+3eZ4vxtB+huO8YD+6uINzxCvfu6KZh6CAFfaNEPSFJWHIJtxQTFl+m6NDv2TNI5+BB9tSNE7Fc/O/pZHTtpXTkKP+1s05pM/Pivcz3D8C/X+OmuX8/xcNn+OeXqrk+OYP4luN4uo7QNHSIvsGD7Oo5wraOU/wwc4yYOHFXCkW5zP5OoixZLLTkEmHL4AOOTDZVjNPpO8HzZT5MK8VOkkeQRSjP3ATFiTuvlDuTPRT4XqN16BDW1Do00aIselCXHrTkYYE5gxW1k9T1n2RzQQ8/TKvhIW8/P8rr4evb6/nAijzCYvcQqt59PmGypLLrthxTvFDZ5XFzkpdfecep6x/l15425q/xKm0g1C6gIsZgiT8QMBdWpFxl/4mxZvOZjVUUDh0kZ/A4P3e2E25JUYCglm7iUlU06YE2hEDj73tnSxBAMCWUKrfj3BrCJR2YFMa8HyzHZL24lwzKy6ACW4rRksvZ7u2nfegEjxcMc12idLZCNItbpTDTkjw84R6mZ/gkyXVnWSCqqGUPEUluvpruo2/oDFWtPv5yrYur4wtIKe2hq+cYm4pH+Mu1WWhrt/K9dB1wsrqHCV6ZQ3icmwhzGRGWcsTP/8md7fQM7aOwaYz5yUXMX7oLV99+igan+P62CjRxoZlLiDC7CbK4uXuFm6a+o1QNnOJnKfVEWVP55KpczLnddI3up6ZriH97pZa719VwS0IJ0fI9yZdpzSfYkk2EOVPZAEItGXxheb7ypFR37+fnu8qUDSEk3qn4DoVfMMhcgmYu5Y4kN96hs3T3T7B0Tx1akrwjPRhIxVdYi7jWkcvq5sPUDZ+hc+gULYNn6BmZoHb8MEWTZzBXjPCpTWXEmIsIj88mIl7akUe4LVNpHCHWbD6/oRzvyOtUdB3m757IJ8hRwPvMEpwlg9pLiHKLSsyEiw9srOaml+v4oWuKrJbXcA0ewOxu4CMrtqGJHUgAVKIqLQIkhobw3g3+2QZF+WwAwrzVdeiAcH5gUo/vEgIEnRwlcHOTAIIQpEiY6cW8ZJBkHUVEWKrQlleSU9JCy9BxHi0Y5WplvCpS9gBJgKIluVibO8zAyDGe6DzHwmQJCtqDFpfO+1d7yakdoHV4gtiCIf5ls4f2ntdIb97L157KJ1w8AI7d/MQ1yeD4SVI7fWj2PYTH6oAQaakg5HEXH9/SRpdvnOrWIeY78rk1diue3ik8A1N8d0sF2tJitNgild4tyOziY4n5NPUeodR3kp9ktBFkyURbsoX/2NZC+74jeIbG+Mj6AqIlu7RZEu5KRF+xHolocXHt0kwVIBX0yFZ+m9pNle806Q0T/M2KdDRbNkF23Q0rcQjBlnJlFL0j2TMnIARZKgiylClDYUx8Nr+rmsTbcYSXXf38/MV6Ep8tYF1uLeWd49SPnGBl8RDXiGcnIZtwaxZhtjzCBBAc6UTbMvnvrEGafK+TVTrEvJVZRCyVpDIulVxWACHYHycREe8mqe0IBXvPKftLV98oDk8Ld69NI8K8Uy1hQmKrrwDCH5Hx6U82KuqAsI/24X00deqsyzOAIEFJF2tgUgAgJFbgLW+laeAYjwkg2N0ESXy5xCoIIPzBqLYhf5ih0aMsq3+VhYmZaOIetGQRas7kq1s7yO04Tln/IfY0TFE79Crfz2hggXUHIXGZRC/J5yf5k3SNn2RP27jyOgQCgmmph09s61CAUNUySIw9j5uXbFGAUDAwxfe26oAgqrvkfBQN4RPJLgUI1YNn+Hl6F5o1Cy1+G/+U3krDxH7yfWN8aKPEEhQREl+sRCILgywSxefCpDSELP71uTrKWo5S0HGIhzKbuMGepTwnkTY3IsIIHSLRldYK7kgueAMgCBAEm0VKFNioZVhyPretziHUloomgVNxJUQ7PDye20Ld6GFKBw/z/zaLQVHcvfkEiSvXkYlmS+fW5GxW1hymsfsUq9JaVJ3oxyVsW9Kn6RqChFZLxqRIm4tFu6tZW9TK7vIeReGXOXqWpaVj3L2hRIV4B5mrVLv0kGwjQOni0hAktF2WDIaGEDErdPkS1BAuPUCQvQNq1rRJlF8puwuHaOw/iq1knOsdHoLsBiC40BJK2JA/xPDIUcwlR5gfv1sBguxPCI53EpxYRHJFL1UjU9T37WV7y0FuW52hqNCjzBWEx5fyH5mDNI8eI6t9ilAxWsa5iTSXIRqChAzfkdJB79B+ChrH1Pp4gSWV/J59FA3u4/vbK9Hi9CVDpEQOWtz81Up9yVDfd46fvdKMKS4TzZzKP+yqpnpwgtJuH59eV0i0bJ7y700QDUEAQbI5a5ZUPriqmPQGCe45xOaaUe5MyCJCohkT3IQkeIm2exQohMoegfhK7ljmVYDQ1Tc+vWRQqrhoIEq8hEo748oJlbDqhEzmxxWiJcnyMYN/edaDs/cQRaOn+GVmAyH2PEIsEkbtQnNIGHYqn1rvIqX3LHVtx/j2E2JwFDp4I8Wa7LeQJYO+xyJElqUSPZq0h7Dl6XzxhSKq+k5T3XuWxzwDRK7MItjiJEjsHLJsCAhSmkt1f6/OXXaA0DW8j47ZGkK8068dXJwaggEI+t4EFw/nDdPQdwx73QQfSMojRuVXLESLcytf+drKXtomh/mFc4Ro8zaloksuhflLc/jYKi9bG3tpHZ2kwzfJS80n+MATMogLmLesQc1sX9vdQanvIEUte/n4pioizduIsqQy35zDtUty+P6eKdrHD5BaPqoGiKwl01sHKR86xH+n1BNiziZyaakKeoqMdfP1DUU0+05QPHiOf366FpPFiWbO4CupzdT6JijuHeejG4vVPoBwS5naeWgyFxJpLkVb0sqda7xsLe+ia2gfr3Qd5DObJNoyF82ar+wN0ZK7MEGSz+ZgslYTZKvkjuUePENn6OgbxbarSt9boUK3JWKzGM1SgimujIVLajBZylVQUKTVyTwxHFpy+ZtVTrZ1jeMamiA5s4dImywrBQxE8tCs6fx8Rw0VPYfJbJ8gbFmaHnsgm39U/sZcgmzpaBL3IaHkVqfaK3FVXBnzZGdnXAr/ua2I2sFzFHaf4x83SmxGxkULBAYABQKCyZLKJa8hzAYExbp8SQBCCSFq26yLe3e20dd6gB0tB7l9XQHhdg9XiWExKZv5q0rJahimq22Yj23rUslnVHiypZhIexmPObupHT7K7poT7K6doG349/wqf4D3JWWrqMaoZBcffrYM5+AkbX37+D+bqwlJzFGRkuHxhUT/wdhnrzpHw94TrPKOoSWIsS6D56o6afXtw5Fdyzz7bjVwZEfm9RYXv3i5mNbxo2zvOM0XnqgkQgaVxcmXUttpHB+mqH+ED2wUG0mJngpe5X0Q914VURvKedE9TOvIqzwx/Dp3p/USYckjRm0Q0n30srEoyOZFYhE0q9iCKrhrmRgVT1Ez6ON3qeVoy2SjVDnz4sqZF1uBKc6/REyoVJTi4r25yupGWyabqLK5Z302md0TuAb3siRngCC77AAV+0GeWpoEWzNYmtNA/eARUluOE2zbo0K+VRi3/Bey49SSodtvLOn65i5bGQvjGoiMq1fLk3vXp1DWd4Ry31m+94rEOEigV2DcgRxfHN6F2YAQvbqOywwQ9OzPlwogmKwliGiWPG5/uoTajjHKfSf4x5eqiTJnErPMi7Z0y/9v78qD4yru9Ogcnbblizg2CUWFbLKpZLOprU3AYAjZ1C5LVWo3McYnuZZdWLIbGxwbGx1zaDSSDwincaDIAsYE27J136NjdFmyJFvn6J6RZB0GX5IdwBjzbb7ueTNvRiPjgAxS8v74qt/0vNfdr9+vv75+v1/jzldb0dw3jsrjZ6B/oVkaHyXzGPQ8/OPeRlT3nkdV1xB++HIb7tvfjObBCeT0nMOPX69BdILUloveXYXdjW+jt/8MNmYfRWxqMaLNZYgxleGLOyuR0fIhakbH8bPDTdCZ2Aj3Y3NuA1qHziOzthN/u20vIpOLEWWw4SuGHDxta0YLlXaOjuOWtDKEW0qgS8jFXYccghBsvcO46TmaINvF7kS4qQz6+HxBcNZj7+CE6wOk907g1oONiKTegTgVi0ZVZdBZeHBIOSKTShHG6QUbYnI2/i41HVWDl1A74IIx55i0/jTZEWK0Q2+qQFhCIb7+TB3ufroMQfGvQZdaiFALLUVtoh4e3WdHTe/bKHKdwb+8SjXwDDHiiUrKRQxPgzIcQUpZJ473X8SbRycQxPUME82kuQZSivk0sNpyALfsyMc3nyyEnmsUxnyEmqsRbKD5cz42v16Cuu5zKHBewg9+XwOdhbYzJAB/zKx1hJBkOxRC0M/2NQQ5QngHxztmGyHQ5JZDXQrVIbxR34uG4cuwlJ/BN3faEUnV3ZQMmOsvosc5gRdtw9BZqExUhqDkQnx5VxGsdRfhPHkJL+TbMcdSgi/sqsT/VbejfvQ97D06htufojkzV9Sr8R+ZLnR0nsX+Dhe+tacSUUmZWJBagJWZPaKB7mt24e+fz5d+Doxv4Y5nDqOwYxCtg+9g++Ea3JCUi3mmAtz9nA1FXSOo7xrHQwc6sJAq0Cl0RFKAf0rvRsPQMIq638FXnq1EdHwZQo010KdUI85ajF9VnkTx4GXUtZ7CztI23Lm3EHf/rhz//OJR/OsLTbhnTxO++iTP0sjCnCey8LVddvzD89W4/blS/PQlG2qG3kfjyBCezT2Ob+1pwTeercfc3eWIMGVhyY48PFJxEq8cG8bPD1Xg5pQ8xBoOYomxEHc/V4C3jvajqXMUbzb2Y0nqAeiSMxCeVICYpDxEUy/DkI4na4bR3P8B3qg4iyBjtiCoIHO5GOVEx+dhsSUbD+f3YW/rBax/tQZftWYgJjEHc+Pz8J3UIhxuOo3WwQ/w+8azuGVnPoKT+S4zq/EHKg9PbdII4XP8UFxDCEsiIXB7kcoxh3Hf62XIbH0PRS4gtfYS7sscxObWS8hzXUZtz3n82ysN0D2RgxBzESItWbj3reOoGPsI1S3jWPn8fugMOcJRyc9eK0WhGLZeweOHOxFOteaECnx3bzNyG07DPngWv3Newi/LTuKR6lHsc15GY+dF/Cq7DnNNB6WZsjEDCxNehym/CfWDZ1HcdxaGoxfxoG0YLzreRUXPObxSdw63PVWBmKR86K3lCDOW4J70HtQPnkNu93l87dlKxNC5icGOOcnl+EnhGCqdH6LUeQnNrovI7jqPg44JlHHPv/8D1HZ+gNLmj/DwoQ6EWNNx044c/OJIL95ov4yctsvIPT6OY0OX0DJyGrWdf8TLXcCLHZex0nYScanp+MKOA3js6ABsrgnUDE3g980f4rGKURiqziB94F0cG7wAW9sYtmbUI9ywD7qULKGGHJ2Yj4j4HMy3ZuHphjOo772Ml4tPIsiUA5IBEZ5AfxFZWLozH4k1Yyh2XUFt/2XsOXEWj9iHsa3qDDI7r6C67yOU9l7Br7N6MJ8KZEZ6Upr5hEAnKZE76xCWcBD6G+8S/hBa+obgOf3ZNUs0FbntOPtGCFK7jqa0cuWZevj50O3Kx7qXWrC/YRz2/j+ibvACSvrHYTs+jB+/RKMf+gooQ5AlH7e8UA5r67vI6PkQ//1aG/TW18UWGg+HnbPxTWxNb0J6+xh213bgG3u5wFoK3Z8W5ZY/X4IDJQOo6riIxv4PcKz/Emp63sMzb9QjKmUfQsT2YYHQ2dfF5+FrFhu2HOlGUeco6obfR9PQH1HSdwW7iiYQ92QtQkw2hBpt0POQD3MZfrivDSXOD/FS6zC+vIt79/Q4lIebkrOxvXgMGT2XkNt9EXldF1HsGEdF23lUtpyDvWUU9g6aGr8PQ3YXgnccQVT8y3jwQANsDadQ3XwOte3vorr9Euwdl1HRcQWljiso7j2DLdkdmJeWDl3aISzZnYH/OXgCGe3n0dF1GY63P0Lz6IeoHL6C9K73cM+eUsQZDyOUC4NmHqBbhKiEIkQnFOBvniqBsW4YGb0TeLpyQDqS4ZDfxF0Mm1AU0yeX4JaUbDz0Zi2OtI2g1jWB5pFxNIycR+3w+zhU9y7+/ZXjmGfKh46OZAzlnuP3lF2GmUgQJITwtBqEbHsTYUtXeFyo0adip3NUnJ3Ktna9MS16CJMJIRVUQ5U6CDNxl4HzSa/lmxAUTh0SyhESb8MNO0px995a/GpfC9buqcIXUg9Cl0oBsyEqqVC484q0ZmJeahYWWbIQlJwOnSUDYYYsRLJBW2sQbjqCuLQDWPxMFoLNGWK7T/hnNGcibvsbuPeVWqzc34gf/aEJX/1tkVCHJinxsFIhsDT8MdZAZ65BcHIxFj91CGvfsOG/XnXgW89XImxXBUK3VyOIXpboAs1UilBTKSJMNsxLK8TiXfnCV0JoYjWCE2sQZbTjBmsJFv42Gwt/m4u43TmI25GDhWnZuCElC/PSMhG1KwMLdmbipu2c91NjMRux5hzcbM3AzalH8MUdGZi3OwvRT2YjblcuvpiWixvScjGfFp+0KaBCV3IJQizFuHlHKe5/6Rgeee0E/ndfO773+jHM312M4JQyBJntbicwsudm/XNxMcSQhbgdBZifVoA5aTSYok1FKUKMkhCExqGxBGHipO08LN2ZhxV77Fj3VhPWHzyGH71Ku5ADYrchKJWLh5IQFAKYyYRAF3gkhFBBCHfMdkIYc287yqPcon86GwihWFjoSUs9qdIaHl/pnrNWIIgGN2a3ezTzUQinJclccOMCm9Sy48q5WIU388jycpGe6JFILvSqRMMdOjwVjZvESO9KXJnnXn+x9GEg3JhJP4eKwAZxmGsiqqAzUgdA+gUUOyJcZOMuxJ88I4njvxLlicOKk1WRr1DcqUBMYgXinqhEeEKVWHQL4ynDSXboE2rEbgPJRmem7wW+tzQwovclPsd8Q5PsiEykI1O+D3ccaJBEqBbo6MvRbc8g8qbOQsIx6Laz3G6DLz7PZ7iLwSPLhAMYmSffVbyvkU5R6RDWLvJlfXKnQw3p6q5MOJGV9cNySk9ROi6KJmYgOImjjyyEkmB4wrPbFF3tNWmm+VQkYfH7RaTWIPTxNxG+9C+aELioM9Pcp3l7JtkIOVoowoJ4G4LN2Qg1FSCE1ng00xXzz3LMo5kwRwcGzsml67UQ4XVYbmvRUInvOX+7XXo5Ft6UqS1nBxtiiKFSCDobWShViJmu8KosvS5LPXs5apGm2XJ7jFt/cvuPe+o2obFHMln8hLtXFkIvBYpCJcsr65zPBRsLEWJkb0vfDNITMhsWnZoEm+mUlYuktCCkoha1N4uE7kG4MRchJDyhQaguA70/FXtA5aIwUybCDIcRYshEkJGOX6l3QJBEqENAbUk2djZ6+d4kW5G3yS4Jgbsb3FoUUJGPgW7cJOjaLYz2CCQXjkaouWgqEfXLeKrLBxuoacnRKb1bUbNR0U70hhohTD31mJYpgzyX4W00ug97FSOEgGc7KgI7MxZ5lB7ZP+QQlfD0uibvtRJHZRKCDdD/edkofd9ROCRVCWcgoVTSFlt/ooGwIcrGLhqKICgSBSHTZxmYvxIq8V4SJlGVuf9XniXxKCTCLUZp6yA0Nw1lCKcjVG7JCiKrkD4bhUandNPmIQSajhvocr1YeJQOSaRPSDo7dbuUI2EKeIlV9ux24XacrscVeMmApMD7vc/SEE2A6zdK5yJGBkpH423sHAnIe6gsxdGTyuWd8qy77rx15futPq94vZV2Lftn/whhEiH8TDFumonrB96P79+Q1b+Vxi6EQyjFeJ9jHP/3uedjhEw9ZOV1IEKgTwABQQa8lu7VRc8vyuDf0IqhS+QwnAtuUj3X2xiVexmykSoNTIbCXNltacdzDUJVmEwI7ukPy8Upixg9uacPih9JMVrinJ1wE48nT3dZFK1GQbZyquCZMojGqtSxUna+n3wvqh7LKZLix/LjQip38Rk3KXjIgCSi5DNzQsqSmhDohp27DLNyUbF9YBStg6e8I4Sf87BX6q9LQlAOzeDhHUpD+rxD9orKSIChQgaK3rvSyESo6o0Dldu3d5ssZHzGnxA4dGa8j3AqhKCMTjj/NbBshFwtF+XxNLQAhOAmB5/y00BL/UwSDaQUEmHZpCUkh9ehiSrQDZwY5isHn/D7qdYPeC3IhoSjhl9+/mUSB6woaapDL9HKEQG9SgcgBK5DqCDkyqecqvUVn/tkXgHJ2P9bqEg/0Def9O0CPK9826meV8dT/sJTqhC6VY4Q/gIIgac/UzFJj5if70ZYEjXcaBJbIU7xkSfoTB5eKw3xsw7VZKBc+5dBiedZAP4EovzHkP/7QGnQJBqFeNzDbzGX5rU7nv8rUwU5p+YpPhIhpgqEekCNQEliiodjGV5LnXJ7Vb2rIqcM8n1JOtIaUhACScENThmIUGMFwnhOhdmOMHMFQlVg+RXI9+BURK45KM5XWW6Rl3IilLKmMEWdeN5Tud8T+k4NFJL11KkqPb6T8r8IBbnKd+XC6cc1aH9ZCPRb3aCnug70XKA4amKGp9gRuvUP0C+93XMugzJC6HSNXfctR25pTtMawgjaBkfRJMyf9Yj95dOSEJK4qs2jtNRCq/i1CxSq7/v4a8/cUpljusNAFe4fR6ELNZZfFRR+0QiS2RD8wf8qhC88+sNTg6fwEOq48ORq+ML7v+f+lCrRS7CnIPSWakRYqtyQ1zJN5qvA7pePN11v/rxHuV8JlftkufTmakRMAZY7wqcsSpl8Q72F5a4Ugk3hjlDAeL868q0LpW6UMk0VMp1AUJ5Xh4Huk3GhJNwAaz/qOIWUpiNkukxHnb76mmRAT1DhFhvCtx1ExLLlPoTgcI6CuN46CNNICMOCEBrdI4Q5D76AsCT6I2Rv4z70gyvctPsWVmt05TUZrJiP+wDqilQPJz3XHmWjqxNKKPd9jeVTIoyr42Y7KDyBysQFOK6eRyRXIiql2geRKdWItPriWu7xf0b8ZloB0vPc65c38/H8p5QhwD3+5bnab+bvJaYqRFq8UJ67ahmVclwlVNJRQnUeynVEShUCYdL7WqsD3qc8+3GEEOh7f5o4f0JQ0lJkSOxaGfMRYclH+PaDiLrxeyioPSGOcuMIYVYRAn0qOgaG0TEwAoUQ5j74O0EIChnQy00gAvCP47YXe119cqXfB5UfmPF0yinnl965pYcM3PvhatIIdM0PQkLwlk+Sls9vQ5mHDHzSd89pFZdcJIQYa01ARFtrEJUq4X9PlOo/5Z5AIdNQp+N/D/+blLY7T+XeQPf4P3O13z5lDZDfVM8q+V9LOFUa6vhrSeda7iG5sTMgoSshrwXYUZjKhfwFIhp1HMkr+iogkYWZKiaNDPwJIdxQCL0pE5HJB6HffhjRN34bhTUn0OYcFqTQ2k9/l7NkhOAlhGE0dPSINYQ5//mS57xE5dxE4fEmwKjAlxRKPT0uK1otDPzNCuYHpCKM0FoLEErnGQEauHukwkavfHwfAlD9L+4xlkHPKQPnu26nHD6h+/6rEYK6/Nr1ZOL6vOpEyJGpQo4OqTLsN4ubcTIAAAXZSURBVFLkd/eXvz+3rCQLJR/Kk1ouFflTwghDAaKNGYg2HYL+8UOIXPZtFAtCGEVr/4hAu3MUPPj1ek8bPvUagiQEjhI4QuiWhPAwpwzeQ1R5/ecQgrryY1NrPcTw2RMClYquPpKYXkKoQoxVw9R1MD2kQjlioycRMPSH8k0pe58EivySFGgWTjJgB6aQgkIESigJIROxxsMI2/oWopZ+ByW1rejo9xJCm3ME7bOBEMhYDUMjODo8imLnIHShEfj6w9uwNCkdiwxHsMCUjThTDuaaczEvOQ9zLHmIdSM6JQ8Koqx5mGvNxyJrIZZaS3Cj1YYvpZZiWWopllrLsMRaisUpNsy3FGOOuVAgJrkQUyHWQvuAT465f/K0PD+1BIvSSrAktQhLrUVYZi3Al1IKsCylEMvEb8YV4UupJW6UijKz3Br+euuAsrvMWoKllmJxHmicKR+x5nzEJPuCcXPM+ZhnysZCSwZu2HEIS4yvQLf06yiubhGE0N43AoLk8FksLH7KEQK3QsbgcI2h1TmCshMO6IJDEP7N7yL21h8h5rYfI2b5fYhZfr9A9O33I+qOVYi64z5EECt+4kHUnSsRc+d9mLdiFRatWI1Fd63F4u+vw+Lvb8Ciu9ZjwYq1mH/HGsy7fTVil9+P6OWrBCKXrwKh/J6uMOaO1YhdsRpzVqzBghVrsNAH67BwhReL7twAgbvWi7KyvBr+uutg4Yq1WEB5Xb4KMbeuRNRtKxFxmwx5TUTetgr621Yh5vbViPv+OkT8YA3Cb70XOn0sSo+2z0ZCoI32KXT3j6G3fwwtjgGs3fAQfrElEat/vQX3b9yC+zcRW7Fq4xas4vXGLVjNeIHfYPVGiTWbtmDto1ux7tGt2PDYNmz4TTwe2JKAB7Yk4oHNCdjw2BPYsGk71m/chrUCj2PtxsexZuPjWO0Oee3FNqzZ+MmxdtM2rHt0O9Zvjhf5izL8JgEbiM2J2LA5aTKU/7VQ1tNfcT1QbgjK0LpN2yDkadM2rFdh3abtWPfoE3hgUwJ+utGINY9asOGxRKx54CFUNXahvW8M7X2jArNqhMCjuPv6RjEwcBonWvvR1OVEY08/mvqdODHgQsvQEBp6e1HT4UBthwNHOzrd6EJdu4JuNPW6cMI1hGN9LtT3ulDfNyDDHqcIj/cNonVgBO1DY+hww0HHpm60DY2CaB0kRgR4XkIgtA2NoWv09JToHD2N9pNjqO9xoqHXiYY+J+o9GJBlY/n6BlDX65oWiHfme2v4i6qDYz0uNPa40NTjwoluCV4fd//u6B1Gt/M02p3jcAycQqeYInjJgKQwSwhBboU4XEPodA6LkYKjfwTNPQNo7RtGu/MdOAROw+E8g07XWXS6ePSZG85xdKrgcE2gffACWgYvoG1gMtoHLqB9YALtrnE43ODz8prxXnQMXMCnAfNpc42jjeHgebQNnvWgZfAcWgbPe9A6NA6JCbQOfXK0D16EhqvUwdAE2mcZOoYm4BicQGcAdA9MoGdgAt2u8+hynhVy3DpwCm2uMUEAJAEFn5UuwqdcQ1DvjXI94RQcXFOgboJrRODP3Sbx7lpw5yIwZJpyusI8Zb7vwDGgxtsiXvl/6nL4p/O2XzrqNK/3NetPw9R1cL3r/3qkL78n19qmlkF1O3LLs3MMDg8+WVu6tvzUeU+T6rI6Y6URq+Om6/p6pj1dZdTS8RUwrT5mV31M4whhdr24Jqja99JkYLIMaITwGTiu1ARvsuBpdTIz60QjBI0QrnFuOzMFWCOW6f0uGiFohKARgiYDHhnQCEETBo8waL3t9Pa2s7E+NULQCEEjBE0GPDKgEYImDB5hmI09mlbm6R3VaISgEYJGCJoMeGRAIwRNGDzCoPW209vbzsb61AhBIwSNEDQZ8MiARgiaMHiEYTb2aFqZp3dUoxGCRggaIWgy4JEBjRA0YfAIg9bbTm9vOxvrUyMEjRA0QtBkwCMDGiFowuARhtnYo2llnt5Rzf8DiXhnRMrKdE4AAAAASUVORK5CYII=;" vertex="1" parent="1">
                    <mxGeometry x="360" y="650.38" width="210" height="169.62" as="geometry"/>
                </mxCell>
                <mxCell id="30" value="" style="endArrow=classic;html=1;" edge="1" parent="1">
                    <mxGeometry width="50" height="50" relative="1" as="geometry">
                        <mxPoint x="550" y="710" as="sourcePoint"/>
                        <mxPoint x="650" y="690" as="targetPoint"/>
                    </mxGeometry>
                </mxCell>
                <mxCell id="31" value="" style="endArrow=classic;html=1;" edge="1" parent="1">
                    <mxGeometry width="50" height="50" relative="1" as="geometry">
                        <mxPoint x="560" y="750" as="sourcePoint"/>
                        <mxPoint x="660" y="750" as="targetPoint"/>
                    </mxGeometry>
                </mxCell>
                <mxCell id="32" value="" style="endArrow=classic;html=1;" edge="1" parent="1">
                    <mxGeometry width="50" height="50" relative="1" as="geometry">
                        <mxPoint x="550" y="790" as="sourcePoint"/>
                        <mxPoint x="650" y="810" as="targetPoint"/>
                    </mxGeometry>
                </mxCell>
                <mxCell id="33" value="&lt;font style=&quot;font-size: 18px;&quot;&gt;虚函数A::vfunc1&lt;/font&gt;" style="rounded=0;whiteSpace=wrap;html=1;" vertex="1" parent="1">
                    <mxGeometry x="660" y="650.38" width="140" height="60" as="geometry"/>
                </mxCell>
                <mxCell id="34" value="&lt;font style=&quot;font-size: 18px;&quot;&gt;虚函数A::vfunc2&lt;/font&gt;" style="rounded=0;whiteSpace=wrap;html=1;" vertex="1" parent="1">
                    <mxGeometry x="660" y="730" width="140" height="60" as="geometry"/>
                </mxCell>
                <mxCell id="35" value="&lt;font style=&quot;font-size: 18px;&quot;&gt;虚函数A::~A&lt;/font&gt;" style="rounded=0;whiteSpace=wrap;html=1;" vertex="1" parent="1">
                    <mxGeometry x="660" y="810" width="140" height="60" as="geometry"/>
                </mxCell>
                <mxCell id="36" value="函数A::func1" style="rounded=0;whiteSpace=wrap;html=1;fontSize=18;" vertex="1" parent="1">
                    <mxGeometry x="490" y="930" width="120" height="60" as="geometry"/>
                </mxCell>
                <mxCell id="38" value="函数A::func2" style="rounded=0;whiteSpace=wrap;html=1;fontSize=18;" vertex="1" parent="1">
                    <mxGeometry x="490" y="1010" width="120" height="60" as="geometry"/>
                </mxCell>
            </root>
        </mxGraphModel>
    </diagram>
</mxfile>